<svg xmlns="http://www.w3.org/2000/svg" viewBox="0 0 1024 1024"><defs><linearGradient id="r" x1="180" y1="120" x2="820" y2="850"><stop stop-color="#720710"/><stop offset="1" stop-color="#4f030b"/></linearGradient><linearGradient id="g" x1="240" y1="760" x2="850" y2="480"><stop stop-color="#a46f22"/><stop offset=".45" stop-color="#f7d87a"/><stop offset="1" stop-color="#c89434"/></linearGradient></defs><rect width="1024" height="1024" fill="#fffdf8"/><g transform="translate(95 120)"><path fill="url(#r)" d="M456 20c24 92 92 135 177 180H485c-16-22-40-48-73-70-41 38-81 67-121 105H161c137-79 242-122 295-215z"/><path fill="url(#r)" d="M215 30c50 30 35 72 12 112 42-25 84-6 90 42 4 35-14 65-43 91 33-2 62 15 65 49 7 62-61 104-121 83-45-16-68-55-64-101 3-53 34-90 65-129 33-42 48-91-4-147z"/><path fill="url(#g)" d="M232 142c9 55-70 80-44 145 16-42 78-61 44-145z"/><text x="30" y="610" font-family="Georgia,serif" font-size="500" font-weight="900" fill="url(#r)" letter-spacing="-40">B</text><text x="430" y="610" font-family="Georgia,serif" font-size="490" font-weight="900" fill="url(#r)" letter-spacing="-28">A</text><path fill="url(#r)" d="M30 615c170 45 355 40 525-7 85-23 148-54 195-102-30 82-142 140-300 175-173 37-350 28-456-23 10-19 23-34 36-43z"/><path fill="url(#g)" d="M270 585c145-48 298-80 500-170 14 74-126 142-286 201-110 42-202 91-287 187 25-99 36-160 73-218z"/><path fill="url(#r)" d="M530 540c49-86 89-158 130-228 69 124 146 247 218 374-50-11-99-26-148-42-23-47-45-93-69-140-28 48-56 97-85 147-18-39-33-76-46-111z"/><path fill="url(#g)" d="M650 585c24-55 78-72 127-43-34 15-44 36-30 62 12 25 43 32 77 20-40 52-133 29-174-39z"/></g></svg>