<svg version="1.1" xmlns="http://www.w3.org/2000/svg" style="display: block;" viewBox="0 0 2048 1360" width="2048" height="1360" preserveAspectRatio="none">
<path transform="translate(0,0)" fill="rgb(114,7,16)" d="M 696.912 337.499 C 698.926 338.292 700.92 339.135 702.893 340.026 C 750.075 361.749 715.393 391.857 724.763 411.644 C 733.376 429.834 754.134 437.056 763.175 461.676 C 770.972 482.907 767.171 503.248 758.066 523.207 C 785.965 503.932 764.411 493.043 794.831 473.079 C 774.65 508.575 837.379 531.004 788.055 574.786 C 800.56 573.926 804.016 574.072 812.897 565.137 C 810.633 590.197 801.524 613.794 778.32 625.972 C 752.691 639.424 730.592 632.079 717.253 607.464 C 721.297 609.584 724.267 611.909 728.824 612.003 L 730.058 611.714 C 759.765 604.622 738.679 568.075 712.049 578.65 C 690.111 587.361 684.561 614.291 692.088 634.772 C 705.208 667.805 731.711 676.069 762.044 685.176 L 762.921 685.387 C 772.046 687.494 809.045 686.895 820.812 686.72 C 890.517 685.685 982.824 687.464 1026.2 752.337 C 1043.42 778.09 1048.53 819.044 1041.25 848.972 C 1033.42 881.149 1016.79 902.927 989.188 920.214 C 977.364 927.607 964.688 933.54 951.437 937.884 C 1002.2 947.459 1039.33 961.812 1074.18 1000.83 C 1048.11 1010.66 1024.71 1021.12 1003.17 1039.39 C 955.836 951.407 878.95 958.444 791.294 958.625 L 791.102 1217.01 C 762.137 1217.05 730.35 1219.23 703.085 1209.86 L 703.103 919.061 L 703.178 834.658 C 703.192 804.327 706.814 764.653 683.921 741.373 C 679.074 736.445 671.6 731.809 664.466 731.943 C 659.883 732.048 655.567 734.119 652.618 737.629 C 651.985 738.378 651.437 739.155 650.882 739.96 C 653.687 741.55 659.313 737.367 666.974 743.004 C 670.705 745.758 673.065 749.989 673.449 754.61 C 675.545 778.615 639.29 782.46 625.237 766.446 C 609.209 748.181 614.214 731.324 608.336 710.436 C 614.25 715.1 623.716 720.001 631.254 719.183 L 632.699 717.581 C 630.929 714.721 623.925 709.894 621.078 707.228 C 579.439 668.227 588.394 606.901 606.344 559.164 C 602.64 598.448 607.055 629.957 633.039 661.953 C 640.734 671.429 650.18 680.421 660.88 686.411 C 668.866 685.923 678.58 689.686 686.824 691.303 C 677.573 684.431 671.241 681.349 661.649 672.981 C 618.835 636.728 608.165 578.753 632.666 528.812 C 640.966 511.895 667.048 481.816 646.83 464.746 L 645.98 464.036 C 647.838 462.677 649.714 462.783 652.051 463.02 C 680.413 465.897 690.873 482.477 689.177 509.271 C 718.835 464.592 672.979 458.28 676.097 419.181 C 678.664 386.979 727.765 376.361 696.912 337.499 z M 791.152 720.491 L 791.124 852.501 C 791.167 876.404 790.597 903.268 791.381 926.923 C 834.46 926.867 878.865 930.95 915.967 906.363 C 940.116 886.982 950.317 868.82 953.889 838.249 C 961.551 772.672 924.782 724.353 858.311 718.648 C 844.801 717.489 826.108 716.539 812.664 718.405 L 791.152 720.491 z"/>
<path transform="translate(0,0)" fill="rgb(203,155,86)" d="M 672.632 589.24 C 683.666 558.864 706.679 547.994 723.46 522.594 C 726.118 518.572 730.241 508.029 731.584 506.848 L 732.595 511.607 C 732.155 520.667 732.102 527.554 729.893 536.434 C 728.549 541.837 721.832 552.317 721.811 555.995 C 724.316 556.14 723.123 556.414 725.395 554.769 L 725.452 553.439 L 726.269 552.893 C 732.314 554.78 759.852 558.925 765.789 555.548 C 772.992 551.45 775.96 544.097 778.768 536.694 L 779.642 536.962 C 782.462 551.854 777.825 560.85 767.5 571.182 C 785.054 614.077 736.954 625.799 728.595 612.889 L 728.824 612.003 L 730.058 611.714 C 759.765 604.622 738.679 568.075 712.049 578.65 C 690.111 587.361 684.561 614.291 692.088 634.772 C 705.208 667.805 731.711 676.069 762.044 685.176 L 761.302 686.607 C 736.064 692.32 692.91 673.036 677.804 652.719 C 677.686 651.563 674.9 641.329 674.471 639.981 C 668.634 621.648 667.588 608.098 672.632 589.24 z"/>
<path transform="translate(0,0)" fill="rgb(203,155,86)" d="M 660.88 686.411 C 668.866 685.923 678.58 689.686 686.824 691.303 C 700.345 695.24 720.801 709.718 729.9 720.095 C 755.232 748.986 751.877 792.687 751.895 828.648 L 751.664 915.968 C 751.614 973.091 751.014 1030.21 749.864 1087.33 C 749.33 1114.02 749.295 1144.37 747.489 1170.76 C 744.97 1145.87 745.334 1108.95 744.751 1082.66 C 743.193 1023.52 742.544 964.349 742.805 905.183 C 742.737 868.673 742.997 831.721 742.049 795.588 C 740.798 760.76 732.356 730.828 700.886 711.528 C 690.056 704.886 669.143 694.402 660.88 686.411 z"/>
<path transform="translate(0,0)" fill="rgb(242,201,131)" d="M 720.329 458.175 C 725.54 464.005 727.988 466.945 732.49 473.518 C 743.809 492.917 747.064 519.34 734.563 539.054 C 731.832 545.009 730.068 547.46 726.269 552.893 L 725.452 553.439 L 725.395 554.769 C 723.123 556.414 724.316 556.14 721.811 555.995 C 721.832 552.317 728.549 541.837 729.893 536.434 C 732.102 527.554 732.155 520.667 732.595 511.607 L 731.584 506.848 C 730.241 508.029 726.118 518.572 723.46 522.594 C 706.679 547.994 683.666 558.864 672.632 589.24 C 668.99 588.973 668.476 588.944 665.29 587.2 C 678.6 540.659 724.822 534.221 726.198 479.804 C 724.843 470.716 723.525 466.571 720.329 458.175 z"/>
<path transform="translate(0,0)" fill="rgb(242,201,131)" d="M 665.29 587.2 C 668.476 588.944 668.99 588.973 672.632 589.24 C 667.588 608.098 668.634 621.648 674.471 639.981 C 674.9 641.329 677.686 651.563 677.804 652.719 C 662.854 634.124 659.119 610.028 665.29 587.2 z"/>
<path transform="translate(0,0)" fill="rgb(203,155,86)" d="M 994.446 775.148 C 1002.94 795.146 1009.51 829.592 999.358 849.217 L 998.556 849.333 C 997.467 850.398 997.285 850.502 995.996 851.326 C 994.421 850.06 994.355 846.469 993.908 843.927 C 998.209 818.897 996.453 801.695 989.262 777.763 L 990.024 776.773 L 992.158 777.414 L 994.446 775.148 z"/>
<path transform="translate(0,0)" fill="rgb(215,153,100)" d="M 993.908 843.927 C 994.355 846.469 994.421 850.06 995.996 851.326 C 997.285 850.502 997.467 850.398 998.556 849.333 L 999.358 849.217 C 995.558 870.586 976.216 894.557 958.385 906.226 C 978.58 887.053 987.618 870.691 993.908 843.927 z"/>
<path transform="translate(0,0)" fill="rgb(215,153,100)" d="M 989.262 777.763 C 983.085 764.334 976.518 751.969 965.587 741.797 C 963.629 739.975 960.065 737.327 959.397 735.089 C 972.103 740.624 987.994 762.328 994.446 775.148 L 992.158 777.414 L 990.024 776.773 L 989.262 777.763 z"/>
<path transform="translate(0,0)" fill="rgb(114,7,16)" d="M 1334.27 841.144 C 1350.36 852.387 1362.68 873.03 1365.67 892.262 C 1372.67 937.183 1346.39 968.481 1313.38 992.927 L 1365.16 1122.27 C 1369.55 1133.23 1374.15 1144.37 1378.45 1155.34 C 1395.12 1197.89 1412.27 1240.71 1465.24 1242.59 L 1465.23 1264.08 C 1417.69 1266.6 1367.91 1270.92 1329.37 1236.42 C 1318.95 1227 1310.05 1216.02 1303 1203.87 C 1292.95 1186.44 1282.34 1156.91 1274.52 1137.38 L 1231.26 1029.66 C 1208.36 1035.7 1185.41 1041.56 1162.42 1047.24 C 1090.54 1065.11 991.416 1087.39 982.959 1176.38 C 963.538 1196.88 946.455 1204.69 919.535 1210.9 C 952.801 1143.41 963.658 1075.16 1034.15 1036.42 C 1047.19 1029.25 1057.16 1024.25 1071.4 1018.86 C 1076.14 1017.07 1089.43 1011.9 1093.4 1009.48 C 1094.82 1010.54 1135.69 999.464 1138.07 997.492 C 1143.97 997.017 1160.7 992.214 1167.04 990.424 C 1194.66 982.773 1222.04 975.066 1248.49 963.893 C 1292.57 945.269 1354.49 904.604 1329.89 848.195 C 1330.52 843.255 1330.13 843.42 1334.27 841.144 z"/>
<path transform="translate(0,0)" fill="rgb(215,153,100)" d="M 1280.41 1039.12 C 1276.89 1033.2 1269.62 1018.76 1274.13 1012.63 L 1275.98 1012.81 C 1282.36 1016.9 1285.71 1029.47 1288.32 1036.76 C 1299.42 1065.53 1310.34 1094.37 1321.09 1123.27 C 1324.38 1132.06 1334.97 1159.05 1336.85 1166.83 L 1334.85 1166.91 C 1334.12 1163.31 1321.93 1136.76 1319.96 1132.05 C 1307.23 1101.48 1292.1 1069.98 1280.41 1039.12 z"/>
<path transform="translate(0,0)" fill="rgb(203,155,86)" d="M 1280.41 1039.12 C 1276.89 1033.2 1269.62 1018.76 1274.13 1012.63 L 1275.98 1012.81 C 1282.36 1016.9 1285.71 1029.47 1288.32 1036.76 C 1286.26 1047.54 1291.92 1042.2 1287.41 1049.23 L 1286.19 1049.07 C 1284.8 1045.39 1284.08 1040.71 1280.41 1039.12 z"/>
<path transform="translate(0,0)" fill="rgb(215,153,100)" d="M 1334.19 932.974 C 1334.69 935.039 1333.45 936.888 1332.29 938.539 C 1292.41 995.333 1221.58 1007.83 1158.24 1020.71 L 1158.14 1020.59 C 1170.49 1015.53 1188.75 1010.74 1201.88 1006.6 C 1252.76 990.572 1299.65 975.407 1334.19 932.974 z"/>
<path transform="translate(0,0)" fill="rgb(150,56,52)" d="M 1334.85 1166.91 L 1336.85 1166.83 C 1339.21 1171.15 1341.18 1176.41 1342.88 1181.03 L 1341.67 1182.47 L 1343.38 1184.29 L 1342.88 1184.1 C 1340.59 1181.36 1336.47 1170.66 1334.85 1166.91 z"/>
<path transform="translate(0,0)" fill="rgb(114,7,16)" d="M 1023.92 368.565 C 1025.88 370.684 1026.75 377.189 1027.37 380.37 C 1037.36 432.261 1072.96 477.503 1114.63 508.617 C 1151.49 536.143 1179.55 562.623 1181.54 612.003 C 1234.6 612.929 1207.86 647.475 1250.5 659.782 C 1207.52 659.095 1163.13 659.678 1120.03 659.576 C 1123.61 651.544 1126.01 643.038 1127.16 634.321 C 1134.13 578.171 1081.61 556.416 1048.05 523.671 C 1035.21 511.133 1033.04 502.996 1024 491.548 C 1017.11 503.81 1009.67 514.71 999.697 524.545 C 970.321 553.507 924.177 573.12 920.998 619.871 C 919.973 634.949 922.892 646.141 929.222 659.681 L 799.039 659.696 C 838.924 647.969 815.849 611.309 867.071 612.11 C 868.128 539.194 931.958 519.027 973.147 472.786 C 1002.32 440.029 1015.29 410.776 1023.92 368.565 z"/>
<path transform="translate(0,0)" fill="rgb(114,7,16)" d="M 635.682 1040.86 L 636.337 1041.51 L 636.214 1044.9 C 634.944 1080.74 680.856 1068.68 661.719 1120.07 C 671.242 1112.68 673.539 1110.35 676.607 1098.79 C 686.341 1115.62 700.886 1148.77 675.627 1162.51 C 674.328 1163.22 670.352 1164.38 669.053 1163.78 C 679.517 1146.71 653.48 1144.09 651.488 1159.29 C 646.308 1198.83 680.349 1223.62 715.645 1229.9 C 742.504 1234.69 769.091 1232.28 796.207 1232.77 C 888.597 1232.93 997.939 1243.93 1020.15 1127.95 C 1039.85 1104.66 1065.17 1093.64 1093.06 1082.99 L 1109.83 1077.44 C 1117.58 1124.67 1103.92 1176.74 1068.09 1209.58 C 1004.78 1267.59 912.984 1263.64 832.746 1264.41 C 798.48 1264.75 764.677 1264.48 730.469 1264.24 C 697.543 1263.82 664.446 1253.64 641.403 1228.97 C 615.14 1201.08 606.857 1160.77 619.999 1124.79 C 622.086 1119.2 625.756 1111.25 628.863 1106.22 C 644.44 1080.98 610.699 1063.95 635.682 1040.86 z"/>
<path transform="translate(0,0)" fill="rgb(114,7,16)" d="M 1144.3 686.949 L 1191.67 686.926 L 1255.05 846.694 C 1265.19 871.995 1277.32 899.847 1286.57 925.235 C 1276.02 932.895 1264.79 939.57 1253.02 945.177 L 1243.4 948.954 C 1235.65 953.562 1215.02 959.979 1205.66 962.985 C 1198.83 948.006 1191.61 928.572 1185.39 913.08 L 1138.27 794.879 C 1122.75 831.903 1107.45 869.014 1092.35 906.212 C 1084.24 925.962 1073.66 949.677 1066.86 969.556 C 1057.34 961.821 1047.24 954.828 1036.66 948.636 L 1144.3 686.949 z"/>
<path transform="translate(0,0)" fill="rgb(203,155,86)" d="M 1213.99 871.063 C 1213.67 867.965 1213.5 866.416 1213.61 863.323 L 1215.02 862.026 L 1217.98 862.571 C 1227.79 885.602 1244.74 922.455 1253.02 945.177 L 1243.4 948.954 C 1234.39 928.827 1222.18 892.884 1213.99 871.063 z"/>
<path transform="translate(0,0)" fill="rgb(215,153,100)" d="M 1213.99 871.063 C 1203.54 842.935 1193.33 814.72 1183.35 786.422 C 1180.74 779.162 1173.69 763.608 1173.14 757.404 C 1175.6 760.745 1180.21 774.087 1182.39 779.138 C 1194.66 806.775 1206.52 834.589 1217.98 862.571 L 1215.02 862.026 L 1213.61 863.323 C 1213.5 866.416 1213.67 867.965 1213.99 871.063 z"/>
<path transform="translate(0,0)" fill="rgb(203,155,86)" d="M 1093.4 1009.48 C 1105.57 1001.07 1119.02 996.004 1129.32 984.361 C 1135.29 977.607 1141.01 970.165 1141.04 960.58 C 1141.06 954.333 1135.53 951.149 1129.86 951.974 C 1122.75 957.866 1128 965.126 1123.82 972.415 C 1114.1 977.557 1098.88 957.013 1105.21 946.225 C 1107.13 942.968 1106.15 934.885 1111.54 931.245 C 1114.44 935.06 1118.46 940.586 1123.91 939.535 C 1123.53 937.391 1123.06 935.932 1122.35 933.798 C 1117.3 918.616 1122.3 901.14 1132.22 889.047 C 1134.45 886.317 1140.25 879.151 1143.22 878.266 C 1145.13 882.67 1142.35 892.478 1143.8 897.477 C 1146.05 905.267 1153.53 910.874 1156.95 918.4 C 1159.47 923.963 1159.2 931.724 1161.62 936.884 L 1164.72 936.024 C 1180.22 959.795 1156.9 984.996 1138.07 997.492 C 1135.69 999.464 1094.82 1010.54 1093.4 1009.48 z"/>
<path transform="translate(0,0)" fill="rgb(203,155,86)" d="M 1143.28 1071.69 C 1170.23 1056.71 1181.06 1064.27 1209.31 1062.55 C 1214.94 1062.21 1221.74 1055.15 1223.42 1055.43 C 1223.77 1062 1223.62 1062.66 1219.87 1068 C 1217.81 1072.01 1204.56 1077.02 1202.78 1079.43 C 1198.2 1085.64 1198.98 1096.87 1187.57 1097.41 C 1182.67 1097.64 1172.56 1095.19 1170.32 1090.5 L 1171.36 1089.97 C 1177.1 1087.01 1180.07 1085.02 1178.02 1078.12 C 1172.21 1069.93 1154.08 1073.14 1145.94 1075.78 C 1144.98 1074.64 1144.08 1073 1143.28 1071.69 z"/>
<path transform="translate(0,0)" fill="rgb(203,155,86)" d="M 1306.98 874.21 C 1300.99 875.7 1295.9 877.363 1290.17 874.535 C 1283.74 871.364 1280.6 856.345 1285.36 852.087 C 1309.31 830.638 1326.69 866.24 1316.59 887.045 C 1314.44 891.474 1313.99 894.317 1311.46 898.037 C 1308.95 896.874 1308.94 896.7 1307.48 894.217 C 1308.84 885.894 1308.48 882.532 1306.98 874.21 z"/>
<path transform="translate(0,0)" fill="rgb(203,155,86)" d="M 1367.75 1022.07 L 1368.58 1022.88 C 1368.49 1033.7 1367.01 1039.77 1368.48 1051.49 C 1369.59 1060.39 1378.27 1077.19 1375.9 1083.62 L 1374.27 1083.78 C 1371.53 1081.19 1370.59 1077.77 1369.28 1074.25 C 1362.76 1058.42 1355.57 1044.7 1349.91 1028.01 C 1359.02 1027.91 1360.68 1027.23 1367.75 1022.07 z"/>
<path transform="translate(0,0)" fill="rgb(203,155,86)" d="M 1261.87 808.967 C 1261.92 804.106 1261.39 803.94 1265.02 800.991 C 1274.31 816.491 1280.57 823.065 1294.08 834.444 L 1292.9 834.826 C 1280.75 838.823 1283.71 843.625 1277.49 845.442 C 1275.04 842.974 1265.5 815.921 1261.87 808.967 z"/>
<path transform="translate(0,0)" fill="rgb(203,155,86)" d="M 1349.61 994.582 C 1355.68 993.129 1361.8 996.782 1363.41 1002.81 C 1365.01 1008.84 1361.51 1015.05 1355.52 1016.81 C 1351.51 1017.98 1347.18 1016.89 1344.21 1013.95 C 1341.23 1011.02 1340.09 1006.7 1341.21 1002.68 C 1342.33 998.653 1345.55 995.554 1349.61 994.582 z"/>
<path transform="translate(0,0)" fill="rgb(203,155,86)" d="M 670.637 1044.65 C 676.838 1043.55 682.749 1047.71 683.814 1053.92 C 684.88 1060.12 680.693 1066.01 674.48 1067.04 C 668.314 1068.07 662.478 1063.92 661.42 1057.76 C 660.363 1051.6 664.481 1045.74 670.637 1044.65 z"/>
<path transform="translate(0,0)" fill="rgb(203,155,86)" d="M 678.213 995.951 C 682.306 998.512 681.042 997.396 683.085 1002.33 C 683.133 1013.93 683.093 1025.54 682.964 1037.14 C 675.993 1034.79 673.273 1035.08 666.09 1035.25 C 665.737 1032.9 671.642 1022.6 673.024 1018.15 C 675.482 1010.24 676.64 1004.02 678.213 995.951 z"/>
<path transform="translate(0,0)" fill="rgb(215,153,100)" d="M 1261.87 808.967 C 1257.5 798.669 1255.85 794.61 1253.78 783.855 C 1258.05 789.209 1261.81 794.945 1265.02 800.991 C 1261.39 803.94 1261.92 804.106 1261.87 808.967 z"/>
<path transform="translate(0,0)" fill="rgb(96,5,11)" fill-opacity="0.984314" d="M 1315.32 830.985 C 1322.94 834.465 1327.33 836.326 1334.27 841.144 C 1330.13 843.42 1330.52 843.255 1329.89 848.195 C 1325.36 840.377 1321.98 837.066 1315.32 830.985 z"/>
<path transform="translate(0,0)" fill="rgb(215,153,100)" d="M 678.213 995.951 C 678.663 991.524 678.64 987.38 680.755 983.584 L 681.948 983.948 C 683.947 990.44 683.232 995.518 683.085 1002.33 C 681.042 997.396 682.306 998.512 678.213 995.951 z"/>
<path transform="translate(0,0)" fill="rgb(215,153,100)" fill-opacity="0.968627" d="M 1128.66 1084.63 C 1134.1 1079.26 1137.14 1076.47 1143.28 1071.69 C 1144.08 1073 1144.98 1074.64 1145.94 1075.78 C 1139.21 1078.86 1135.11 1080.94 1128.66 1084.63 z"/>
<path transform="translate(0,0)" fill="rgb(215,153,100)" fill-opacity="0.94902" d="M 1302.19 911.753 L 1307.48 894.217 C 1308.94 896.7 1308.95 896.874 1311.46 898.037 C 1310.35 900.407 1304.04 909.105 1302.19 911.753 z"/>
</svg>
