<svg version="1.1" xmlns="http://www.w3.org/2000/svg" style="display: block;" viewBox="0 0 2048 2048" width="2048" height="2048" preserveAspectRatio="none">
<defs>
	<linearGradient id="Gradient1" gradientUnits="userSpaceOnUse" x1="714.416" y1="1048.43" x2="777.887" y2="1037.51">
		<stop class="stop0" offset="0" stop-opacity="0.984314" stop-color="rgb(159,123,52)"/>
		<stop class="stop1" offset="1" stop-opacity="1" stop-color="rgb(200,150,100)"/>
	</linearGradient>
	<linearGradient id="Gradient2" gradientUnits="userSpaceOnUse" x1="1113.24" y1="1302.6" x2="1103.78" y2="1226.52">
		<stop class="stop0" offset="0" stop-opacity="1" stop-color="rgb(47,10,11)"/>
		<stop class="stop1" offset="1" stop-opacity="1" stop-color="rgb(111,41,44)"/>
	</linearGradient>
	<linearGradient id="Gradient3" gradientUnits="userSpaceOnUse" x1="937.574" y1="1305.94" x2="939.629" y2="1226.14">
		<stop class="stop0" offset="0" stop-opacity="1" stop-color="rgb(44,8,7)"/>
		<stop class="stop1" offset="1" stop-opacity="1" stop-color="rgb(113,43,44)"/>
	</linearGradient>
	<linearGradient id="Gradient4" gradientUnits="userSpaceOnUse" x1="1195.4" y1="1121.24" x2="1195.68" y2="1188.31">
		<stop class="stop0" offset="0" stop-opacity="1" stop-color="rgb(103,33,37)"/>
		<stop class="stop1" offset="1" stop-opacity="1" stop-color="rgb(44,8,7)"/>
	</linearGradient>
	<linearGradient id="Gradient5" gradientUnits="userSpaceOnUse" x1="815.562" y1="1122.12" x2="817.097" y2="1191.17">
		<stop class="stop0" offset="0" stop-opacity="1" stop-color="rgb(110,39,42)"/>
		<stop class="stop1" offset="1" stop-opacity="1" stop-color="rgb(44,8,7)"/>
	</linearGradient>
	<linearGradient id="Gradient6" gradientUnits="userSpaceOnUse" x1="760.172" y1="925.108" x2="844.355" y2="981.976">
		<stop class="stop0" offset="0" stop-opacity="1" stop-color="rgb(220,196,139)"/>
		<stop class="stop1" offset="1" stop-opacity="1" stop-color="rgb(220,151,77)"/>
	</linearGradient>
	<linearGradient id="Gradient7" gradientUnits="userSpaceOnUse" x1="780.908" y1="800.934" x2="864.747" y2="868.114">
		<stop class="stop0" offset="0" stop-opacity="1" stop-color="rgb(219,196,140)"/>
		<stop class="stop1" offset="1" stop-opacity="1" stop-color="rgb(213,142,71)"/>
	</linearGradient>
	<linearGradient id="Gradient8" gradientUnits="userSpaceOnUse" x1="1230.68" y1="924.938" x2="1146.82" y2="982.677">
		<stop class="stop0" offset="0" stop-opacity="1" stop-color="rgb(220,196,139)"/>
		<stop class="stop1" offset="1" stop-opacity="1" stop-color="rgb(218,146,74)"/>
	</linearGradient>
	<linearGradient id="Gradient9" gradientUnits="userSpaceOnUse" x1="1209.38" y1="800.451" x2="1125.1" y2="867.312">
		<stop class="stop0" offset="0" stop-opacity="1" stop-color="rgb(217,193,138)"/>
		<stop class="stop1" offset="1" stop-opacity="1" stop-color="rgb(211,139,69)"/>
	</linearGradient>
	<linearGradient id="Gradient10" gradientUnits="userSpaceOnUse" x1="1010.66" y1="737.608" x2="1010.57" y2="834.704">
		<stop class="stop0" offset="0" stop-opacity="1" stop-color="rgb(218,192,135)"/>
		<stop class="stop1" offset="1" stop-opacity="1" stop-color="rgb(199,132,66)"/>
	</linearGradient>
	<linearGradient id="Gradient11" gradientUnits="userSpaceOnUse" x1="1254.77" y1="677.516" x2="1123.78" y2="754.244">
		<stop class="stop0" offset="0" stop-opacity="1" stop-color="rgb(89,25,29)"/>
		<stop class="stop1" offset="1" stop-opacity="1" stop-color="rgb(190,89,95)"/>
	</linearGradient>
	<linearGradient id="Gradient12" gradientUnits="userSpaceOnUse" x1="835.753" y1="688.253" x2="1131.8" y2="715.323">
		<stop class="stop0" offset="0" stop-opacity="1" stop-color="rgb(75,18,20)"/>
		<stop class="stop1" offset="1" stop-opacity="1" stop-color="rgb(188,87,92)"/>
	</linearGradient>
	<linearGradient id="Gradient13" gradientUnits="userSpaceOnUse" x1="1209.14" y1="409.654" x2="1280.17" y2="458.631">
		<stop class="stop0" offset="0" stop-opacity="1" stop-color="rgb(179,77,80)"/>
		<stop class="stop1" offset="1" stop-opacity="1" stop-color="rgb(83,22,24)"/>
	</linearGradient>
	<linearGradient id="Gradient14" gradientUnits="userSpaceOnUse" x1="1404.59" y1="514.635" x2="1357.25" y2="555.685">
		<stop class="stop0" offset="0" stop-opacity="1" stop-color="rgb(168,89,74)"/>
		<stop class="stop1" offset="1" stop-opacity="1" stop-color="rgb(88,14,21)"/>
	</linearGradient>
	<linearGradient id="Gradient15" gradientUnits="userSpaceOnUse" x1="1143.87" y1="455.132" x2="1101.66" y2="474.422">
		<stop class="stop0" offset="0" stop-opacity="1" stop-color="rgb(176,71,80)"/>
		<stop class="stop1" offset="1" stop-opacity="1" stop-color="rgb(64,16,18)"/>
	</linearGradient>
	<linearGradient id="Gradient16" gradientUnits="userSpaceOnUse" x1="1295.93" y1="766.702" x2="1277.33" y2="803.422">
		<stop class="stop0" offset="0" stop-opacity="1" stop-color="rgb(188,85,78)"/>
		<stop class="stop1" offset="1" stop-opacity="1" stop-color="rgb(70,10,15)"/>
	</linearGradient>
	<linearGradient id="Gradient17" gradientUnits="userSpaceOnUse" x1="973.046" y1="162.227" x2="1023.27" y2="315.986">
		<stop class="stop0" offset="0" stop-opacity="1" stop-color="rgb(199,138,58)"/>
		<stop class="stop1" offset="1" stop-opacity="1" stop-color="rgb(198,99,55)"/>
	</linearGradient>
	<linearGradient id="Gradient18" gradientUnits="userSpaceOnUse" x1="786.994" y1="383.789" x2="873.695" y2="420.651">
		<stop class="stop0" offset="0" stop-opacity="1" stop-color="rgb(58,11,11)"/>
		<stop class="stop1" offset="1" stop-opacity="1" stop-color="rgb(206,106,107)"/>
	</linearGradient>
	<linearGradient id="Gradient19" gradientUnits="userSpaceOnUse" x1="904.737" y1="231.764" x2="937.238" y2="334.769">
		<stop class="stop0" offset="0" stop-opacity="1" stop-color="rgb(187,93,78)"/>
		<stop class="stop1" offset="1" stop-opacity="1" stop-color="rgb(41,11,11)"/>
	</linearGradient>
	<linearGradient id="Gradient20" gradientUnits="userSpaceOnUse" x1="939.536" y1="324.985" x2="1036.28" y2="354.401">
		<stop class="stop0" offset="0" stop-opacity="1" stop-color="rgb(72,17,16)"/>
		<stop class="stop1" offset="1" stop-opacity="1" stop-color="rgb(184,65,64)"/>
	</linearGradient>
	<linearGradient id="Gradient21" gradientUnits="userSpaceOnUse" x1="977.366" y1="233.175" x2="1013.68" y2="272.696">
		<stop class="stop0" offset="0" stop-opacity="1" stop-color="rgb(206,170,78)"/>
		<stop class="stop1" offset="1" stop-opacity="1" stop-color="rgb(215,118,60)"/>
	</linearGradient>
	<linearGradient id="Gradient22" gradientUnits="userSpaceOnUse" x1="990.154" y1="167.173" x2="989.66" y2="219.506">
		<stop class="stop0" offset="0" stop-opacity="1" stop-color="rgb(231,197,123)"/>
		<stop class="stop1" offset="1" stop-opacity="1" stop-color="rgb(221,134,69)"/>
	</linearGradient>
	<linearGradient id="Gradient23" gradientUnits="userSpaceOnUse" x1="1000.44" y1="107.69" x2="1001.27" y2="174.13">
		<stop class="stop0" offset="0" stop-opacity="1" stop-color="rgb(214,171,82)"/>
		<stop class="stop1" offset="1" stop-opacity="1" stop-color="rgb(185,84,63)"/>
	</linearGradient>
	<linearGradient id="Gradient24" gradientUnits="userSpaceOnUse" x1="1793.65" y1="864.05" x2="1793.05" y2="1111.62">
		<stop class="stop0" offset="0" stop-opacity="1" stop-color="rgb(60,10,10)"/>
		<stop class="stop1" offset="1" stop-opacity="1" stop-color="rgb(170,65,64)"/>
	</linearGradient>
	<linearGradient id="Gradient25" gradientUnits="userSpaceOnUse" x1="1701.37" y1="762.575" x2="1674.08" y2="884.708">
		<stop class="stop0" offset="0" stop-opacity="1" stop-color="rgb(59,12,9)"/>
		<stop class="stop1" offset="1" stop-opacity="1" stop-color="rgb(207,102,112)"/>
	</linearGradient>
	<linearGradient id="Gradient26" gradientUnits="userSpaceOnUse" x1="1620.94" y1="661.235" x2="1602.14" y2="805.686">
		<stop class="stop0" offset="0" stop-opacity="1" stop-color="rgb(61,15,12)"/>
		<stop class="stop1" offset="1" stop-opacity="1" stop-color="rgb(225,127,116)"/>
	</linearGradient>
	<linearGradient id="Gradient27" gradientUnits="userSpaceOnUse" x1="1694.11" y1="1003.87" x2="1598.68" y2="1026.37">
		<stop class="stop0" offset="0" stop-opacity="1" stop-color="rgb(56,9,8)"/>
		<stop class="stop1" offset="1" stop-opacity="1" stop-color="rgb(186,79,83)"/>
	</linearGradient>
	<linearGradient id="Gradient28" gradientUnits="userSpaceOnUse" x1="1431.12" y1="864.74" x2="1357.96" y2="917.593">
		<stop class="stop0" offset="0" stop-opacity="1" stop-color="rgb(165,74,75)"/>
		<stop class="stop1" offset="1" stop-opacity="1" stop-color="rgb(43,4,4)"/>
	</linearGradient>
	<linearGradient id="Gradient29" gradientUnits="userSpaceOnUse" x1="1452.94" y1="903.963" x2="1400.32" y2="939.038">
		<stop class="stop0" offset="0" stop-opacity="1" stop-color="rgb(194,93,87)"/>
		<stop class="stop1" offset="1" stop-opacity="1" stop-color="rgb(58,5,5)"/>
	</linearGradient>
	<linearGradient id="Gradient30" gradientUnits="userSpaceOnUse" x1="612.447" y1="870.784" x2="650.04" y2="927.978">
		<stop class="stop0" offset="0" stop-opacity="1" stop-color="rgb(211,116,116)"/>
		<stop class="stop1" offset="1" stop-opacity="1" stop-color="rgb(74,13,14)"/>
	</linearGradient>
	<linearGradient id="Gradient31" gradientUnits="userSpaceOnUse" x1="409.701" y1="857.825" x2="412.785" y2="969.614">
		<stop class="stop0" offset="0" stop-opacity="1" stop-color="rgb(53,8,9)"/>
		<stop class="stop1" offset="1" stop-opacity="1" stop-color="rgb(197,90,99)"/>
	</linearGradient>
	<linearGradient id="Gradient32" gradientUnits="userSpaceOnUse" x1="487.011" y1="1028.92" x2="619.021" y2="1072.04">
		<stop class="stop0" offset="0" stop-opacity="1" stop-color="rgb(62,5,8)"/>
		<stop class="stop1" offset="1" stop-opacity="1" stop-color="rgb(209,122,116)"/>
	</linearGradient>
	<linearGradient id="Gradient33" gradientUnits="userSpaceOnUse" x1="693.767" y1="1410.27" x2="559.352" y2="1450.63">
		<stop class="stop0" offset="0" stop-opacity="1" stop-color="rgb(79,7,9)"/>
		<stop class="stop1" offset="1" stop-opacity="1" stop-color="rgb(187,84,91)"/>
	</linearGradient>
	<linearGradient id="Gradient34" gradientUnits="userSpaceOnUse" x1="1070.2" y1="1540.83" x2="1065.54" y2="1628.87">
		<stop class="stop0" offset="0" stop-opacity="1" stop-color="rgb(48,1,1)"/>
		<stop class="stop1" offset="1" stop-opacity="1" stop-color="rgb(181,55,65)"/>
	</linearGradient>
	<linearGradient id="Gradient35" gradientUnits="userSpaceOnUse" x1="1035.72" y1="1683.2" x2="1039.33" y2="1799.5">
		<stop class="stop0" offset="0" stop-opacity="1" stop-color="rgb(46,0,0)"/>
		<stop class="stop1" offset="1" stop-opacity="1" stop-color="rgb(174,43,54)"/>
	</linearGradient>
	<linearGradient id="Gradient36" gradientUnits="userSpaceOnUse" x1="1470.66" y1="1361.25" x2="1561.95" y2="1401.38">
		<stop class="stop0" offset="0" stop-opacity="1" stop-color="rgb(73,8,10)"/>
		<stop class="stop1" offset="1" stop-opacity="1" stop-color="rgb(212,95,103)"/>
	</linearGradient>
	<linearGradient id="Gradient37" gradientUnits="userSpaceOnUse" x1="1261.75" y1="1307.46" x2="1383.4" y2="1366.44">
		<stop class="stop0" offset="0" stop-opacity="1" stop-color="rgb(209,96,109)"/>
		<stop class="stop1" offset="1" stop-opacity="1" stop-color="rgb(58,3,5)"/>
	</linearGradient>
	<linearGradient id="Gradient38" gradientUnits="userSpaceOnUse" x1="1495.17" y1="1206.74" x2="1528.15" y2="1297.29">
		<stop class="stop0" offset="0" stop-opacity="1" stop-color="rgb(49,5,4)"/>
		<stop class="stop1" offset="1" stop-opacity="1" stop-color="rgb(205,97,99)"/>
	</linearGradient>
	<linearGradient id="Gradient39" gradientUnits="userSpaceOnUse" x1="398.484" y1="1630.01" x2="1642.06" y2="1725.47">
		<stop class="stop0" offset="0" stop-opacity="1" stop-color="rgb(224,171,108)"/>
		<stop class="stop1" offset="1" stop-opacity="1" stop-color="rgb(148,61,37)"/>
	</linearGradient>
	<linearGradient id="Gradient40" gradientUnits="userSpaceOnUse" x1="1800.19" y1="1304.82" x2="1700.57" y2="1304.86">
		<stop class="stop0" offset="0" stop-opacity="1" stop-color="rgb(91,17,15)"/>
		<stop class="stop1" offset="1" stop-opacity="1" stop-color="rgb(236,147,133)"/>
	</linearGradient>
	<linearGradient id="Gradient41" gradientUnits="userSpaceOnUse" x1="250.998" y1="1130.04" x2="262.522" y2="1282.77">
		<stop class="stop0" offset="0" stop-opacity="1" stop-color="rgb(78,7,7)"/>
		<stop class="stop1" offset="1" stop-opacity="1" stop-color="rgb(224,123,122)"/>
	</linearGradient>
	<linearGradient id="Gradient42" gradientUnits="userSpaceOnUse" x1="1325.29" y1="1335.77" x2="1384.65" y2="1423.35">
		<stop class="stop0" offset="0" stop-opacity="1" stop-color="rgb(63,3,5)"/>
		<stop class="stop1" offset="1" stop-opacity="1" stop-color="rgb(203,99,96)"/>
	</linearGradient>
	<linearGradient id="Gradient43" gradientUnits="userSpaceOnUse" x1="1093.81" y1="1224.09" x2="1081.89" y2="1290.42">
		<stop class="stop0" offset="0" stop-opacity="1" stop-color="rgb(116,45,46)"/>
		<stop class="stop1" offset="1" stop-opacity="1" stop-color="rgb(57,14,16)"/>
	</linearGradient>
	<linearGradient id="Gradient44" gradientUnits="userSpaceOnUse" x1="837.143" y1="1218.46" x2="823.895" y2="1293.11">
		<stop class="stop0" offset="0" stop-opacity="1" stop-color="rgb(114,44,46)"/>
		<stop class="stop1" offset="1" stop-opacity="1" stop-color="rgb(45,8,10)"/>
	</linearGradient>
	<linearGradient id="Gradient45" gradientUnits="userSpaceOnUse" x1="663.535" y1="669.472" x2="509.321" y2="706.844">
		<stop class="stop0" offset="0" stop-opacity="1" stop-color="rgb(181,76,81)"/>
		<stop class="stop1" offset="1" stop-opacity="1" stop-color="rgb(62,10,11)"/>
	</linearGradient>
	<linearGradient id="Gradient46" gradientUnits="userSpaceOnUse" x1="449.872" y1="514.788" x2="498.336" y2="554.969">
		<stop class="stop0" offset="0" stop-opacity="1" stop-color="rgb(182,105,93)"/>
		<stop class="stop1" offset="1" stop-opacity="1" stop-color="rgb(69,10,15)"/>
	</linearGradient>
	<linearGradient id="Gradient47" gradientUnits="userSpaceOnUse" x1="790.367" y1="400.62" x2="736.825" y2="465.902">
		<stop class="stop0" offset="0" stop-opacity="1" stop-color="rgb(174,68,77)"/>
		<stop class="stop1" offset="1" stop-opacity="1" stop-color="rgb(58,17,17)"/>
	</linearGradient>
	<linearGradient id="Gradient48" gradientUnits="userSpaceOnUse" x1="445.25" y1="841.789" x2="522.805" y2="906.417">
		<stop class="stop0" offset="0" stop-opacity="1" stop-color="rgb(203,104,92)"/>
		<stop class="stop1" offset="1" stop-opacity="1" stop-color="rgb(79,11,15)"/>
	</linearGradient>
	<linearGradient id="Gradient49" gradientUnits="userSpaceOnUse" x1="857.702" y1="1121.71" x2="1055.97" y2="1278.08">
		<stop class="stop0" offset="0" stop-opacity="1" stop-color="rgb(61,14,17)"/>
		<stop class="stop1" offset="1" stop-opacity="1" stop-color="rgb(137,60,61)"/>
	</linearGradient>
	<linearGradient id="Gradient50" gradientUnits="userSpaceOnUse" x1="987.253" y1="534.746" x2="999.593" y2="1441.21">
		<stop class="stop0" offset="0" stop-opacity="1" stop-color="rgb(235,197,150)"/>
		<stop class="stop1" offset="1" stop-opacity="1" stop-color="rgb(203,133,81)"/>
	</linearGradient>
	<linearGradient id="Gradient51" gradientUnits="userSpaceOnUse" x1="652.765" y1="344.035" x2="1070.12" y2="977.107">
		<stop class="stop0" offset="0" stop-opacity="1" stop-color="rgb(63,14,14)"/>
		<stop class="stop1" offset="1" stop-opacity="1" stop-color="rgb(159,75,76)"/>
	</linearGradient>
	<linearGradient id="Gradient52" gradientUnits="userSpaceOnUse" x1="1333.91" y1="341.889" x2="915.564" y2="1006.32">
		<stop class="stop0" offset="0" stop-opacity="1" stop-color="rgb(67,14,13)"/>
		<stop class="stop1" offset="1" stop-opacity="1" stop-color="rgb(152,64,66)"/>
	</linearGradient>
</defs>
<path fill="#FFFCF5" stroke="none" d="
M 0 0
L 2048 0
L 2048 2048
L 0 2048
L 0 0
Z"/>
<path fill="url(#Gradient1)" stroke="none" d="
M 738.41 1009.6
C 729.989 1010.12 721.622 1012.62 713.5 1015.07
C 705.52 1017.48 696.161 1021.8 690.554 1028.19
C 688.487 1030.54 687.028 1033.79 687.033 1037.01
C 687.051 1046.68 698.544 1052.77 706.223 1055.51
C 719.08 1060.1 734.837 1059.13 747.839 1055.98
C 759.445 1053.16 775.118 1048.01 781.679 1037.43
C 783.411 1034.64 784.305 1030.82 783.359 1027.61
C 780.647 1018.4 769.142 1013.39 760.72 1011.3
C 753.527 1009.52 745.796 1009.13 738.41 1009.6
Z"/>
<path fill="url(#Gradient2)" stroke="none" d="
M 1133.81 1238.46
C 1126.82 1241.12 1123.83 1249.28 1122.94 1256.12
C 1121.88 1264.3 1122.47 1272.95 1125.88 1280.56
C 1128.38 1286.14 1134.83 1293.67 1141.36 1294.69
C 1143.44 1295.01 1146 1294.77 1147.82 1293.68
C 1155.06 1289.34 1158.02 1278.52 1159.78 1270.79
C 1162.25 1259.94 1162.57 1245.09 1155.68 1235.75
C 1152.15 1230.96 1145.79 1228.13 1139.99 1230.06
C 1136.54 1231.21 1134.78 1235.04 1133.81 1238.46
Z"/>
<path fill="url(#Gradient3)" stroke="none" d="
M 926.313 1232.22
C 917.323 1235.94 915.241 1246.78 915.109 1255.56
C 914.952 1265.89 918.697 1277.49 925.952 1285.07
C 932.011 1291.39 941.618 1295.72 950.443 1294.08
C 957.789 1292.72 961.405 1285.2 963.181 1278.64
C 966.257 1267.28 963.768 1253.21 957.909 1243.14
C 954.238 1236.83 947.409 1228.95 939.486 1228.95
C 935.511 1228.95 929.968 1230.71 926.313 1232.22
Z"/>
<path fill="#7F333D" stroke="none" d="
M 1003.75 1239.43
C 996.286 1240.15 989.35 1244.73 985.89 1251.39
C 983.516 1255.96 983.181 1262.25 985.041 1267.04
C 987.143 1272.45 991.978 1276.44 997.036 1278.95
C 1004.26 1282.54 1013.89 1283.03 1021.41 1279.89
C 1027.03 1277.55 1031.78 1273.31 1034.14 1267.61
C 1036.02 1263.05 1035.45 1256.77 1032.76 1252.57
C 1026.69 1243.1 1015.16 1238.33 1003.75 1239.43
Z"/>
<path fill="url(#Gradient4)" stroke="none" d="
M 1198.6 1130.48
C 1187.46 1137.63 1180.59 1149.96 1179.6 1163.09
C 1179.25 1167.73 1179.75 1171.78 1182.29 1175.79
C 1184.66 1179.54 1188.77 1182.32 1193.09 1183.31
C 1205.19 1186.08 1220.91 1178.92 1228.33 1169.34
C 1235.89 1159.57 1238.02 1147.96 1236.33 1135.95
C 1234.18 1120.71 1222.04 1108.49 1206.15 1111.45
C 1198.64 1112.85 1197.62 1124.29 1198.6 1130.48
Z"/>
<path fill="url(#Gradient5)" stroke="none" d="
M 811.816 1112.32
C 805.53 1113.57 802.499 1118.51 802.182 1124.62
C 801.549 1136.82 804.919 1149.77 811.614 1160.06
C 818.785 1171.08 830.64 1180.37 843.264 1184.22
C 846.849 1185.32 850.825 1186.35 854.564 1185.43
C 859.434 1184.23 863.39 1180.48 865.491 1175.97
C 869.184 1168.04 866.792 1157.08 863.945 1149.24
C 857.195 1130.65 838.82 1113.85 818.954 1111.97
C 816.617 1111.75 814.141 1111.86 811.816 1112.32
Z"/>
<path fill="url(#Gradient6)" stroke="none" d="
M 775.129 930.034
C 781.971 943.538 802.507 960.512 816.899 965.815
C 820.09 966.991 824.33 965.968 827.618 965.715
C 821.779 955.486 813.177 946.146 804.56 938.101
C 795.197 929.36 783.543 921.702 770.687 919.487
C 770.74 922.943 773.582 926.981 775.129 930.034
Z"/>
<path fill="url(#Gradient7)" stroke="none" d="
M 779.997 819.406
C 801.862 840.742 825.751 858.386 852.281 873.53
C 856.839 876.132 862.919 880.471 868.25 880.986
C 879.189 882.041 890.787 878.135 897.189 868.925
C 890.816 861.046 881.797 853.755 873.854 847.444
C 850.995 829.281 820.551 813.542 792.098 806.661
C 785.221 804.998 778.535 803.491 771.5 802.674
C 772.645 808.752 775.593 815.109 779.997 819.406
Z"/>
<path fill="url(#Gradient8)" stroke="none" d="
M 1213.94 930.618
C 1200.54 936.256 1190.17 948.258 1182.51 960.267
C 1181.66 961.594 1177.48 966.73 1178.12 968.037
C 1180.94 969.389 1187.68 968.22 1190.72 967.336
C 1208.97 962.021 1225.41 944.909 1234.77 929.041
C 1236.89 925.445 1239.09 921.618 1240.03 917.5
C 1230.28 919.169 1222.95 926.826 1213.94 930.618
Z"/>
<path fill="url(#Gradient9)" stroke="none" d="
M 1222.39 803.297
C 1185.58 807.317 1142.15 833.377 1116.68 859.668
C 1112.99 863.478 1110.75 868.819 1106.94 872.643
C 1124.64 876.537 1128.92 880.476 1145.1 869.915
C 1173.11 851.637 1197.27 830.462 1219.08 805.178
C 1220.29 803.771 1221.04 804.397 1222.39 803.297
Z"/>
<path fill="#E0BD77" stroke="none" d="
M 905.46 874.005
C 899.946 877.337 897.717 883.253 899.404 889.501
C 903.802 905.792 922.252 918.121 936.987 924.055
C 944.823 927.211 953.503 929.692 962 929.941
C 964.452 930.013 969.532 929.732 971.261 927.749
C 969.195 917.898 957.997 905.461 950.784 898.55
C 938.143 886.435 919.863 873.552 902.085 871.948
C 901.682 873.293 906.044 872.648 905.46 874.005
Z"/>
<path fill="#E0BD77" stroke="none" d="
M 1080.28 874.521
C 1074.71 875.755 1068.98 877.672 1063.83 880.133
C 1051.68 885.94 1042.31 896.414 1034.7 907.233
C 1029.53 914.589 1024.98 922.237 1023.28 931.147
C 1042.49 930.964 1061.37 924.171 1076.18 911.918
C 1086.29 903.554 1095.61 890.866 1098.09 877.772
C 1094.37 874.491 1084.97 873.483 1080.28 874.521
Z"/>
<path fill="url(#Gradient10)" stroke="none" d="
M 972.901 749.264
C 969.91 750.992 968.746 754.185 969.061 757.5
C 971.016 778.053 993.047 802.099 1010.76 810.158
C 1020.73 805.516 1035.64 785.218 1040.33 775.05
C 1042.88 769.534 1044.11 763.456 1044.5 757.412
C 1044.6 755.739 1044.86 752.618 1043.6 751.274
C 1042.05 749.634 1037.63 749.052 1035.48 748.701
C 1022.32 746.552 1007.34 749.272 995.365 754.949
C 991.506 756.778 987.63 759.825 985.54 763.588
C 984.146 766.098 985.097 768.596 984.809 771.279
C 984.807 771.297 984.802 771.315 984.8 771.333
C 981.945 768.516 981.117 762.982 979.787 759.236
C 979.002 757.027 978.006 754.721 976.602 752.834
C 975.796 751.75 974.249 750.029 972.901 749.264
Z"/>
<path fill="#E1C28E" stroke="none" d="
M 1250.01 478.159
C 1247.63 478.882 1245.1 480.231 1244.37 482.877
C 1243.72 485.263 1244.86 487.713 1246.63 489.336
C 1249.16 491.641 1252.81 491.954 1256.08 491.77
C 1259.74 491.564 1264.4 490.711 1267.04 487.888
C 1269.1 485.68 1269.5 482.328 1267.59 479.919
C 1264.07 475.49 1255.03 476.628 1250.01 478.159
Z"/>
<path fill="#E1C28E" stroke="none" d="
M 741.609 478.013
C 736.525 479.048 730.688 483.334 733.022 489.051
C 734.793 493.39 740.339 494.484 744.533 494.462
C 749.931 494.433 755.992 492.502 759.128 487.857
C 761.127 484.897 759.639 481.415 756.697 479.838
C 752.848 477.775 745.861 477.147 741.609 478.013
Z"/>
<path fill="#E1C28E" stroke="none" d="
M 1000.41 389.282
C 996.213 390.557 995.039 394.957 995.339 398.948
C 995.646 403.016 997.574 407.021 1000.71 409.65
C 1002.67 411.294 1005.03 411.882 1007.55 412.024
C 1011.36 412.239 1015.21 410.834 1017.6 407.72
C 1020.46 403.995 1020.85 399.473 1020.16 394.961
C 1019.58 391.186 1016.78 388.904 1012.99 388.808
C 1009.49 388.719 1003.83 388.246 1000.41 389.282
Z"/>
<path fill="#C4965E" stroke="none" d="
M 724.076 515.154
C 718.994 515.823 714.167 518.075 711.049 522.301
C 707.713 526.823 708.167 531.644 710.03 536.721
C 713.243 545.478 720.68 552.522 728.2 557.75
C 739.622 565.689 753.333 570.137 767.316 570.017
C 771.668 569.979 775.857 568.672 778.922 565.5
C 782.301 562.001 783.526 556.949 782.624 552.215
C 779.196 534.218 757.121 520.297 740.693 516.631
C 735.355 515.44 729.514 514.438 724.076 515.154
Z"/>
<path fill="#C4965E" stroke="none" d="
M 1265.31 515.14
C 1251.15 517.082 1235.22 527.024 1228.44 539.895
C 1224.31 547.728 1224.54 560.546 1232.94 565.604
C 1236.03 567.465 1239.53 567.599 1243.02 567.344
C 1265.59 565.689 1289.59 549.584 1295.97 527.37
C 1297.71 521.304 1291.93 517.891 1286.93 516.681
C 1280.04 515.012 1272.34 514.177 1265.31 515.14
Z"/>
<path fill="url(#Gradient11)" stroke="none" d="
M 1141.49 689.469
C 1123.09 695.864 1109.97 709.361 1101.23 726.495
C 1098.17 732.484 1095.73 738.701 1094.04 745.215
C 1093.32 747.997 1092.22 751.834 1093.86 754.461
C 1097.72 760.652 1110.37 760.638 1116.72 760.371
C 1138.12 759.471 1158.8 749.151 1175.26 736.022
C 1194.28 720.844 1212.08 700.294 1219.53 676.749
C 1208.22 674.132 1195.98 674.276 1184.47 675.339
C 1169.85 676.689 1155.34 684.655 1141.49 689.469
Z"/>
<path fill="url(#Gradient12)" stroke="none" d="
M 853.778 675.221
C 842.194 676.739 830.911 679.773 820.173 684.39
C 821.105 696.554 833.053 711.785 841.046 720.5
C 860.473 741.684 888.917 758.225 918.329 758.221
C 927.418 758.22 935.175 757.55 943.687 754.289
C 941.266 740.723 934.956 727.581 926.721 716.624
C 911.304 696.11 886.363 681.139 861.5 675.882
C 858.876 675.327 856.427 674.874 853.778 675.221
Z"/>
<path fill="#571C21" stroke="none" d="
M 995.353 534.48
C 984.216 536.815 975.92 548.032 971.307 557.76
C 965.691 569.604 962.067 583.797 969.013 595.956
C 976.291 608.694 991.978 612.016 1005.5 609.503
C 1019.45 606.91 1033.44 596.443 1039.39 583.408
C 1043.6 574.171 1041.28 562.353 1036.04 554.096
C 1028.09 541.581 1010.32 531.344 995.353 534.48
Z"/>
<path fill="#E0BD77" stroke="none" d="
M 998.354 560.449
C 993.454 562.049 987.988 568.62 989.744 574.076
C 990.591 576.709 992.691 578.073 995.225 578.943
C 1001.13 580.966 1008.2 578.335 1012.62 574.297
C 1016.05 571.157 1017.52 565.622 1014.3 561.831
C 1010.34 557.178 1003.81 558.667 998.354 560.449
Z"/>
<path fill="#D58847" stroke="none" d="
M 839.94 364.444
C 847.854 376.043 854.077 387.144 866.324 394.797
C 882.225 404.735 901.093 407.249 919.45 407.961
C 913.236 395.526 901.385 382.082 891.297 372.506
C 881.518 363.225 865.43 351.002 851.245 352.413
C 844.889 353.045 841.862 359.274 839.94 364.444
Z"/>
<path fill="#D58847" stroke="none" d="
M 1176.4 351.372
C 1154.05 356.376 1130.24 383.404 1119.42 402.467
C 1142.83 400.713 1170.09 388.601 1181.32 366.89
C 1183.79 362.117 1184.9 356.825 1186.07 351.617
C 1182.85 351.167 1179.64 350.648 1176.4 351.372
Z"/>
<path fill="url(#Gradient13)" stroke="none" d="
M 1210.57 404.964
C 1199.78 407.886 1189.11 421.104 1183.8 430.466
C 1190.27 428.082 1196.58 424.253 1202.48 420.683
C 1217.05 411.878 1230.34 400.372 1240.37 386.596
C 1230.51 393.516 1223.15 401.554 1210.57 404.964
Z"/>
<path fill="#D58847" stroke="none" d="
M 757.089 395.15
C 764.043 405.87 780.484 420.03 792.427 424.89
C 802.538 429.005 818.014 433.192 828.596 429.039
C 821.598 418.512 808.745 411.661 797.096 407.187
C 783.744 402.058 771.275 401.423 757.089 395.15
Z"/>
<path fill="#581619" stroke="none" d="
M 1271.12 392.437
C 1260.94 396.5 1254.81 409.801 1256.75 420.274
C 1259.45 434.8 1274.57 441.309 1288.26 439.027
C 1298.81 437.269 1309.6 428.201 1314.42 418.82
C 1320.07 407.827 1317.63 396.867 1306.92 390.14
C 1297.8 384.407 1280.88 388.541 1271.12 392.437
Z"/>
<path fill="#581619" stroke="none" d="
M 686.8 392.428
C 675.006 397.351 672.524 410.441 677.661 421.5
C 682.931 432.843 694.257 439.274 706.5 439.779
C 720.365 440.351 733.438 433.486 737.447 419.448
C 740.128 410.063 736.044 398.227 727.875 392.691
C 718.413 386.281 696.867 388.228 686.8 392.428
Z"/>
<path fill="url(#Gradient14)" stroke="none" d="
M 1411.6 457.433
C 1405.64 459.301 1399.21 461.718 1393.53 464.286
C 1377.94 471.334 1365.17 480.146 1352.26 491.28
C 1339.91 501.934 1329.39 515.433 1321.7 529.819
C 1320.05 532.917 1317.4 537.79 1317.24 541.324
C 1341.33 531.936 1364.2 520.479 1383.67 503.207
C 1391.73 496.056 1400.31 487.694 1405.59 478.203
C 1409.28 471.555 1410.44 464.902 1411.6 457.433
Z"/>
<path fill="#D58847" stroke="none" d="
M 1445.48 614.642
C 1426.28 615.931 1405.29 624.098 1388.06 632.189
C 1355.85 647.314 1323.02 671.723 1307.92 705.167
C 1335.21 697.197 1360.92 685.49 1383.95 668.633
C 1405.09 653.16 1426.64 634.846 1445.48 614.642
Z"/>
<path fill="url(#Gradient15)" stroke="none" d="
M 1145.6 438.354
C 1133.07 443.179 1121.25 452.591 1112.49 462.718
C 1109.6 466.067 1105.24 470.904 1104.05 475.2
C 1129.93 472.543 1144.17 451.971 1145.6 438.354
Z"/>
<path fill="#D58847" stroke="none" d="
M 1049.36 462.109
C 1047.35 468.911 1049.46 476.307 1052.48 482.5
C 1060.34 498.609 1077.89 514.36 1093.56 522.869
C 1089.79 510.933 1083.28 498.618 1074.93 489.251
C 1067.18 480.556 1055.51 473.028 1049.36 462.109
Z"/>
<path fill="#D58847" stroke="none" d="
M 941.689 462.013
C 938.287 467.957 932.477 472.697 927.679 477.499
C 917.014 488.169 906.584 503.994 904.438 519.242
C 918.784 511.575 936.304 496.543 943.397 481.529
C 946.351 475.278 948.475 468.586 945.548 461.935
C 944.251 461.928 942.985 461.999 941.689 462.013
Z"/>
<path fill="#D58847" stroke="none" d="
M 854.805 439.397
C 859.235 462.034 877.691 471.781 899.084 475.281
C 896.894 469.58 890.763 463.696 886.546 459.5
C 879.044 452.038 866.064 441.719 855.519 439.708
C 855.283 439.663 855.041 439.439 854.805 439.397
Z"/>
<path fill="url(#Gradient16)" stroke="none" d="
M 1371.28 709.76
C 1364.12 711.889 1357.55 717.214 1352.05 722.117
C 1338.09 734.559 1323.68 750.656 1315.1 767.5
C 1334.31 762.108 1355.16 747.308 1366.76 730.883
C 1371.48 724.195 1373.63 717.799 1375.44 709.915
C 1374.09 709.891 1372.58 709.374 1371.28 709.76
Z"/>
<path fill="#D58847" stroke="none" d="
M 1373.33 742.194
C 1358.03 747.952 1344.22 764.544 1339.41 780.095
C 1352.12 779.228 1366.79 770.546 1373.2 759.352
C 1376.11 754.276 1376.31 747.782 1373.33 742.194
Z"/>
<path fill="#D58847" stroke="none" d="
M 644.219 737.36
C 641.383 743.421 642.05 750.79 645.31 756.55
C 651.714 767.867 666.744 778.187 679.937 778.263
C 675.069 762.837 660.143 743.179 644.219 737.36
Z"/>
<path fill="#D58847" stroke="none" d="
M 619.583 710.331
C 619.552 719.414 625.094 729.012 630.573 735.903
C 642.416 750.799 662.808 761.983 681.012 766.356
C 670.153 744.965 644.264 718.422 620.784 710.444
C 620.38 710.307 619.987 710.402 619.583 710.331
Z"/>
<path fill="#D58847" stroke="none" d="
M 553.163 614.498
C 571.56 636.61 600.94 660.802 625.791 675.5
C 644.171 686.371 664.426 694.242 684.751 700.442
C 675.688 678.536 657.063 660.827 637.605 647.871
C 611.79 630.679 583.943 620.778 553.163 614.498
Z"/>
<path fill="#D58847" stroke="none" d="
M 559.561 459.308
C 560.404 467.305 562.331 473.586 566.27 480.634
C 572.895 492.491 583.328 502.8 594.017 511.022
C 609.836 523.188 628.383 532.21 646.845 539.581
C 636.808 506.913 602.762 481.782 572.5 468.104
C 568.2 466.161 563.905 463.741 559.561 459.308
Z"/>
<path fill="url(#Gradient17)" stroke="none" d="
M 992.67 161.605
C 973.756 164.408 961.75 185.736 956.853 202.5
C 951.408 221.141 954.723 241.692 969.004 255.808
C 975.196 261.927 983.267 266.193 991.701 268.296
C 1001.52 270.744 1015.13 270.385 1023.61 264.184
C 1031.89 258.133 1035.38 247.991 1037.67 238.361
C 1044.49 209.696 1025.16 163.615 992.67 161.605
Z"/>
<path fill="#D58847" stroke="none" d="
M 1011.86 317.135
C 994.093 319.895 974.975 335.162 969.305 352.653
C 973.293 356.932 982.683 358.379 988.185 359.107
C 1003.26 361.103 1019.54 356.704 1031.34 346.984
C 1040.2 339.682 1047.21 328.312 1048.36 316.763
C 1036.71 317.865 1023.7 315.296 1011.86 317.135
Z"/>
<path fill="url(#Gradient18)" stroke="none" d="
M 802.691 383.38
C 788.565 384.392 776.801 383.084 763.5 377.502
C 777.04 397.504 800.121 414.185 824.354 417.543
C 821.848 408.46 814.536 386.644 805.096 383.429
C 804.362 383.179 803.458 383.325 802.691 383.38
Z"/>
<path fill="#D58847" stroke="none" d="
M 914.925 252.371
C 912.51 255.811 914.136 261.625 914.444 265.528
C 916.032 285.613 924.978 306.941 937.284 322.803
C 945.261 309.899 951.027 295.763 948.504 280.5
C 946.198 266.544 937.484 256.109 924.413 250.761
C 921.871 249.721 917.154 249.195 914.925 252.371
Z"/>
<path fill="url(#Gradient19)" stroke="none" d="
M 902.382 267.424
C 897.031 285.998 908.085 305.514 920.041 319.503
C 924.721 324.98 930.164 329.684 936.088 333.761
C 925.566 321.095 916.038 303.796 912.009 287.842
C 910.454 281.685 910.22 275.322 908.9 269.13
C 908.703 268.204 908.429 267.16 907.834 266.404
C 906.421 264.605 903.088 264.974 902.382 267.424
Z"/>
<path fill="url(#Gradient20)" stroke="none" d="
M 964.655 329.342
C 946.543 335.316 933.257 350.962 928.365 369.311
C 941.597 361.342 951.179 351.907 966.674 347.182
C 980.145 343.075 998.523 344.631 1009.67 334.939
C 1004.75 326.993 971.739 327.006 964.655 329.342
Z"/>
<path fill="url(#Gradient21)" stroke="none" d="
M 972.413 243.294
C 970.165 245.962 969.894 249.154 970.452 252.5
C 971.311 257.661 973.418 262.92 977.329 266.526
C 983.599 272.306 995.946 273.408 1004 273.959
C 1012.19 274.52 1022.85 273.473 1029.21 267.549
C 1033.56 263.498 1034.88 257.134 1034.58 251.412
C 1034.43 248.441 1033.89 244.318 1031.5 242.273
C 1026.52 238.004 1011.99 241.298 1006 242.271
C 1000.14 243.222 994.59 245.244 989.077 247.342
C 985.358 248.758 981.603 251.251 979.579 254.779
C 979.403 252.069 978.842 249.618 977.832 247.088
C 977.25 245.632 975.923 243.55 974.29 243.144
C 973.684 242.994 973.008 243.008 972.413 243.294
Z"/>
<path fill="url(#Gradient22)" stroke="none" d="
M 992.84 185.388
C 988.247 186.554 987.44 191.506 987.932 195.668
C 988.951 204.283 992.752 213.814 998.579 220.339
C 1001.19 223.264 1004.65 225.761 1008.53 226.632
C 1013.72 227.795 1020.32 226.446 1024.44 222.974
C 1030.89 217.539 1031.1 207.924 1028.38 200.46
C 1023.54 187.208 1006.33 181.961 993.39 185.25
C 993.207 185.296 993.024 185.342 992.84 185.388
Z"/>
<path fill="url(#Gradient23)" stroke="none" d="
M 998.788 101.822
C 995.956 103.498 993.683 107.025 992.706 110.103
C 989.462 120.317 994.007 131.131 1001.49 138.249
C 1014.69 150.796 1040.21 151.113 1048.51 167.972
C 1048.53 167.983 1048.56 167.994 1048.58 168.005
C 1047.82 165.283 1047.57 162.201 1046.49 159.436
C 1039.45 141.449 1020.71 130.39 1013.82 111.767
C 1011.59 105.759 1005.56 97.8201 998.788 101.822
Z"/>
<path fill="url(#Gradient24)" stroke="none" d="
M 1776.5 827.406
C 1756.7 835.256 1744.06 859.193 1738.16 878.834
C 1730.18 905.363 1732.76 934.409 1742.06 960.281
C 1747.39 975.114 1755.5 988.583 1762.67 1002.5
C 1770.16 1017.03 1774.09 1034.56 1774.21 1050.92
C 1774.39 1074.68 1772.47 1096.74 1766.68 1119.82
C 1778.94 1114.46 1791.4 1106.79 1802.3 1099.13
C 1830.05 1079.63 1852.38 1055.82 1869.62 1026.56
C 1877.15 1013.79 1883.43 1000.25 1888.02 986.143
C 1892.48 972.431 1895.8 958.279 1897.22 943.907
C 1901.01 905.358 1887.93 858.055 1851.11 839.274
C 1829.91 828.461 1799.91 818.128 1776.5 827.406
Z"/>
<path fill="url(#Gradient25)" stroke="none" d="
M 1623.5 732.416
C 1611.57 736.627 1605.01 750.202 1601.45 761.566
C 1598.11 772.24 1596.77 783.386 1595.93 794.5
C 1593.65 824.838 1598.44 861.296 1614.71 887.57
C 1621.62 881.002 1628.49 874.347 1635.83 868.253
C 1651.39 855.343 1670.97 847.301 1688.55 837.5
C 1698.02 832.219 1707.88 827.112 1716.75 820.845
C 1726.01 814.305 1734.35 804.743 1736.58 793.385
C 1739.62 777.862 1732.58 760.141 1719.54 751.181
C 1695.24 734.476 1652.25 722.27 1623.5 732.416
Z"/>
<path fill="url(#Gradient26)" stroke="none" d="
M 1634.49 626.448
C 1608.04 634.397 1583.39 646.435 1557.5 655.975
C 1544.8 660.653 1531.74 662.118 1518.46 664.203
C 1544.65 676.098 1572.79 692.02 1590.15 715.881
C 1595.01 722.569 1597.81 730.242 1601.3 737.653
C 1605.05 731.888 1611.58 728.074 1618.09 726.301
C 1628.37 723.503 1640.35 722.545 1650.84 724.708
C 1677.68 730.245 1705.34 739.979 1729.34 753.28
C 1739.96 759.165 1749.07 766.983 1755.02 777.695
C 1758.35 783.692 1760.2 790.191 1762.66 796.564
C 1777.1 789.776 1788.97 781.635 1799.01 769.053
C 1815.11 748.864 1818.36 717.776 1803.81 695.943
C 1791.65 677.683 1775.82 664.212 1755.47 655.829
C 1729.25 645.03 1699.22 638.569 1670.61 639.036
C 1669.35 639.056 1668.03 639.093 1666.77 639.161
C 1664.92 637.274 1663.43 635.297 1661.17 633.786
C 1653.76 628.845 1643.28 623.806 1634.49 626.448
Z"/>
<path fill="url(#Gradient27)" stroke="none" d="
M 1686.96 1007.49
C 1663.88 1013.28 1643.8 1012.64 1621.5 1004.31
C 1616.01 1002.26 1607.47 997.705 1601.93 1002.86
C 1600.71 1004 1599.59 1005.84 1600.04 1007.57
C 1601.22 1012.08 1612.97 1016.76 1616.76 1018.68
C 1641.08 1030.98 1669.38 1035.03 1696.09 1028.91
C 1719.43 1023.56 1734.99 1011.51 1753.64 997.579
C 1731.97 1004.97 1710.16 1001.67 1686.96 1007.49
Z"/>
<path fill="url(#Gradient28)" stroke="none" d="
M 1451.41 843.733
C 1434.31 849.148 1423.83 870.883 1419.49 887.083
C 1410.95 918.945 1416.94 954.752 1438.32 980.332
C 1445.85 989.337 1455.75 996.035 1465.92 1001.72
C 1460.72 985.025 1450.35 971.48 1441.4 956.614
C 1435.83 947.361 1430.64 937.376 1427.59 926.987
C 1422.64 910.113 1422.45 891.552 1427.61 874.662
C 1431.69 861.295 1440.1 853.479 1451.41 843.733
Z"/>
<path fill="url(#Gradient29)" stroke="none" d="
M 1513.4 904.162
C 1491.65 908.539 1476.93 922.837 1464.94 940.744
C 1455.09 955.466 1449.01 972.239 1450.56 990.041
C 1452.22 1009.14 1464.11 1030.68 1482.37 1038.33
C 1479.63 1022.09 1478.43 1005.18 1480.73 988.834
C 1485.13 957.45 1502.57 928.395 1529.11 911.215
C 1537.05 906.072 1544.89 903.941 1553.88 901.671
C 1540.98 899.185 1526.2 901.586 1513.4 904.162
Z"/>
<path fill="url(#Gradient30)" stroke="none" d="
M 587.979 841.423
C 580.353 841.783 572.504 841.609 564.916 842.424
C 582.647 852.606 598.213 866.509 609.681 883.5
C 630.544 914.409 638.882 949.394 633.327 986.312
C 627.415 1025.61 608.75 1063.52 576.871 1088.14
C 609.725 1078.73 632.082 1043.39 637.323 1011.19
C 640.653 990.731 639.308 968.622 633.363 948.745
C 630.031 937.606 623.973 928.38 620.421 917.499
C 627.343 925.462 634.028 933.519 638.662 943.052
C 646.402 959.023 650.902 977.836 650.721 995.62
C 650.646 1002.93 648.169 1010.08 648.5 1017.33
C 663.745 992.237 665.974 961.498 655.695 934.198
C 646.089 908.682 626.589 879.698 600.5 869.27
C 596.14 867.527 591.05 866.291 586.305 866.54
C 583.606 866.682 581.094 867.335 578.49 867.972
C 593.026 861.047 609.672 855.951 625.802 858.02
C 618.507 849.506 599.087 840.899 587.979 841.423
Z"/>
<path fill="url(#Gradient31)" stroke="none" d="
M 370.5 846.424
C 363.065 849.11 356.317 854.032 350.557 859.392
C 339.158 869.998 331.746 883.62 326.714 898.249
C 317.621 924.695 317.354 954.891 324.089 981.907
C 329.718 1004.49 341.513 1025.36 359.091 1040.87
C 375.411 1055.27 393.514 1062.22 413.58 1069.43
C 409.09 1057.82 403.292 1046.68 397.072 1035.92
C 381.785 1009.45 370.748 986.336 368.184 955.553
C 365.771 926.574 371.762 896.087 389.267 872.331
C 399.131 858.942 411.028 850.274 424.709 841.407
C 406.255 838.28 387.923 840.129 370.5 846.424
Z"/>
<path fill="url(#Gradient32)" stroke="none" d="
M 494.591 1022.44
C 484.596 1023.28 474.737 1022.42 464.901 1020.56
C 441.85 1016.22 422.085 1007.42 401.406 996.731
C 411.383 1025.02 445.872 1044.8 471.596 1055.65
C 483.503 1060.67 495.87 1064.88 508.495 1067.69
C 518.859 1069.99 531.085 1072.92 541.734 1070.69
C 550.653 1068.82 555.488 1058.08 558.376 1050.39
C 528.129 1057.03 495.352 1042.39 476.337 1018.25
C 484.124 1019.92 491.749 1022.4 499.536 1024.07
C 497.952 1023.53 496.235 1022.31 494.591 1022.44
Z"/>
<path fill="url(#Gradient33)" stroke="none" d="
M 606.809 1332.46
C 573.036 1340.23 537.986 1351.15 510.5 1373.08
C 484.99 1393.44 467.33 1422.19 461.103 1454.27
C 456.317 1478.92 459.741 1504.46 470.372 1527.25
C 479.835 1547.53 492.596 1564.79 509.079 1579.83
C 522.641 1592.2 537.439 1602.47 554.004 1610.46
C 593.724 1629.62 642.124 1637.58 686.103 1635.98
C 733.677 1634.25 775.908 1611.24 818.089 1591.78
C 783.959 1597.57 753.626 1606.72 718.5 1605.14
C 660.408 1602.52 600.285 1573.12 568.143 1523.84
C 553.837 1501.9 547.547 1477.48 552.2 1451.5
C 561.792 1397.95 603.164 1360.72 653.009 1343.76
C 670.838 1337.7 689.648 1334.38 708.347 1332.45
C 676.226 1328.42 638.427 1325.19 606.809 1332.46
Z"/>
<path fill="url(#Gradient34)" stroke="none" d="
M 1016.99 1527.52
C 1008.42 1528.8 997.939 1532.08 990.548 1536.63
C 979.083 1543.69 971.867 1557.38 971.218 1570.68
C 970.561 1584.1 975.311 1595.49 985.187 1604.68
C 993.486 1612.4 1004.83 1615.38 1015.81 1616.78
C 1029.55 1618.53 1045.28 1617.28 1058.31 1612.43
C 1069.96 1608.08 1082.11 1599.25 1087.26 1587.61
C 1094.28 1571.75 1090.47 1552.93 1079.41 1539.83
C 1074.34 1533.83 1067.08 1527.94 1059.01 1527.01
C 1045.04 1525.4 1030.93 1525.43 1016.99 1527.52
Z"/>
<path fill="url(#Gradient35)" stroke="none" d="
M 982.5 1624.06
C 969.307 1626.2 956.884 1631.62 945.807 1639.01
C 914.619 1659.83 894.908 1699.58 896.383 1736.72
C 897.714 1770.28 918.313 1798.68 946.535 1815.54
C 976.014 1833.16 1011.94 1838.45 1045.77 1834.96
C 1095.81 1829.8 1141.62 1784.29 1141.12 1732.99
C 1140.83 1702.62 1126.17 1673.02 1102.96 1653.56
C 1070.26 1626.13 1024.74 1617.21 982.5 1624.06
Z"/>
<path fill="url(#Gradient36)" stroke="none" d="
M 1539.5 1322.4
C 1526.99 1323.44 1514.68 1326.98 1502.64 1330.35
C 1457.99 1342.84 1414.49 1366.5 1387.34 1405.26
C 1373.1 1425.59 1365.76 1449.88 1364.82 1474.59
C 1364.09 1493.62 1369.4 1513.95 1380.92 1529.34
C 1397.66 1551.72 1424.04 1563.78 1451.66 1564.54
C 1426.13 1547.71 1413.41 1520.84 1415.58 1490.5
C 1418.74 1446.39 1454.74 1410.07 1494.5 1395.65
C 1523.44 1385.15 1553.39 1382.47 1583.89 1385.33
C 1607.09 1387.5 1628.95 1394.6 1651.5 1399.61
C 1634.42 1374.99 1620.83 1355.93 1593.5 1340.59
C 1577.37 1331.54 1557.95 1320.86 1539.5 1322.4
Z"/>
<path fill="url(#Gradient37)" stroke="none" d="
M 1298.6 1286.38
C 1280.94 1290.87 1267.69 1304.19 1260.66 1320.75
C 1245.9 1355.48 1256.4 1398.95 1284.04 1424.41
C 1292.74 1432.42 1303.35 1437.7 1313.28 1443.99
C 1300.6 1420.02 1295.46 1394.78 1298.43 1367.69
C 1302.01 1334.99 1318.8 1307.62 1345.89 1288.91
C 1347.63 1287.71 1348.58 1287.49 1350.51 1286.79
C 1337.77 1282.85 1311.55 1283.09 1298.6 1286.38
Z"/>
<path fill="url(#Gradient38)" stroke="none" d="
M 1505.5 1159.42
C 1487.11 1167.22 1470.81 1180.27 1457.6 1195.2
C 1430.57 1225.73 1419.81 1263.28 1420.52 1303.71
C 1420.64 1310.63 1421.54 1317.51 1423.37 1324.19
C 1428.69 1304.56 1443.57 1288.76 1460.5 1278.26
C 1483.44 1264.04 1510.08 1262.7 1535.88 1269.52
C 1543.07 1271.42 1550.16 1274.58 1557.25 1276.66
C 1548.22 1265.19 1538.72 1253.96 1534.33 1239.72
C 1531.51 1230.59 1530.82 1220.82 1531.62 1211.32
C 1532.43 1201.73 1536.4 1192.45 1537.4 1183.02
C 1538.73 1170.52 1528.81 1159.34 1516.5 1158.17
C 1512.74 1157.81 1508.94 1157.96 1505.5 1159.42
Z"/>
<path fill="#D58847" stroke="none" d="
M 1731.59 1178.4
C 1714.12 1181.04 1697.32 1189.89 1684.59 1202.08
C 1671.59 1214.53 1664.48 1229.31 1658.42 1245.95
C 1683.82 1235.41 1710.65 1232.5 1735.49 1246.57
C 1753.97 1257.04 1766.35 1272.72 1772.58 1292.87
C 1790.95 1271.04 1794.1 1241.18 1779.98 1216.1
C 1770.19 1198.73 1751.59 1175.37 1731.59 1178.4
Z"/>
<path fill="url(#Gradient39)" stroke="none" d="
M 1058.5 1569.82
C 1054.83 1569.98 1052.15 1573.41 1051.21 1576.75
C 1049.59 1582.57 1052.57 1587.97 1057.27 1591.34
C 1063.94 1596.14 1074.29 1594.75 1081.36 1591.6
C 1109.16 1589.3 1138.08 1586.21 1165.86 1583.75
C 1293.53 1572.46 1423.21 1574.06 1547.5 1608.88
C 1590.88 1621.04 1631.69 1638.15 1669.5 1662.98
C 1678.87 1669.14 1689.29 1679.38 1699.5 1683.75
C 1704.36 1685.83 1710.14 1684.47 1713.18 1680.06
C 1715.33 1676.94 1715.78 1673.6 1714.97 1669.95
C 1711.6 1654.71 1690.91 1643.56 1678.51 1636.11
C 1642.67 1614.58 1602.82 1600.4 1562.5 1591.62
C 1436.25 1564.15 1305.42 1560.97 1177 1569.04
C 1146.8 1570.94 1116.61 1573.99 1086.5 1576.9
C 1079.46 1573.05 1066.39 1569.47 1058.5 1569.82
Z"/>
<path fill="url(#Gradient40)" stroke="none" d="
M 1744.49 1244.44
C 1722.53 1253.26 1698.12 1264.02 1682.37 1282.48
C 1674.97 1291.15 1670.23 1302.76 1670.31 1314.24
C 1670.36 1320.93 1673.44 1328.71 1680.19 1331.05
C 1689.72 1334.36 1705.1 1326.33 1713.26 1322.49
C 1737.13 1311.27 1758.22 1288.52 1771.91 1266.19
C 1776.77 1258.26 1778.88 1247.33 1775.55 1238.44
C 1766.11 1236.06 1753.32 1240.89 1744.49 1244.44
Z"/>
<path fill="url(#Gradient41)" stroke="none" d="
M 257.456 1086.46
C 233.968 1089.52 212.781 1110.68 200.2 1129.5
C 190.557 1143.92 185.515 1160.23 181.88 1177.04
C 172.984 1218.18 177.237 1262.29 191.859 1301.65
C 210.14 1350.84 251.013 1384.61 301.02 1398.64
C 333.176 1407.67 365.095 1402.66 394.952 1388.31
C 409.86 1381.15 424.632 1371.79 436.5 1360.26
C 406.127 1370.66 377.472 1377.04 345.099 1370.69
C 294.257 1360.73 251.466 1319.23 241.242 1267.99
C 236.742 1245.44 237.185 1220.6 242.466 1198.23
C 248.914 1170.92 265.532 1144.23 290.378 1130.17
C 299.865 1124.8 310.274 1123.4 320.091 1119.01
C 319.267 1110.64 306.135 1102.08 299.945 1097.87
C 287.324 1089.28 272.889 1084.45 257.456 1086.46
Z"/>
<path fill="url(#Gradient42)" stroke="none" d="
M 1340.61 1364.5
C 1333.5 1369.25 1328.3 1376.51 1325.88 1384.74
C 1321.29 1400.36 1326.07 1416.66 1335.75 1429.4
C 1340.07 1435.08 1346.11 1440.15 1353.49 1440.56
C 1364.15 1441.14 1372.76 1431.81 1376.86 1422.77
C 1383.08 1409.08 1385.07 1390.46 1374.71 1378.17
C 1366.93 1368.95 1352.7 1356.42 1340.61 1364.5
Z"/>
<path fill="url(#Gradient43)" stroke="none" d="
M 1087.04 1191.39
C 1072.42 1193.37 1058.1 1202.1 1050.75 1215.06
C 1044.25 1226.53 1043.66 1241.42 1052.42 1251.8
C 1057.87 1258.26 1065.57 1261.1 1073.94 1260.57
C 1089.58 1259.58 1102.52 1246.3 1108.13 1232.31
C 1112.92 1220.37 1113.46 1206.93 1103.13 1197.72
C 1098.44 1193.54 1093.31 1190.54 1087.04 1191.39
Z"/>
<path fill="url(#Gradient44)" stroke="none" d="
M 845.44 1190.38
C 833.233 1192.47 820.278 1206.32 818.035 1218.55
C 815.682 1231.39 820.409 1243.73 830.127 1252.23
C 837.775 1258.93 849.185 1262.14 858.704 1257.64
C 868.039 1253.23 871.698 1240.94 871.702 1231.33
C 871.707 1218.47 865.66 1203.09 856.261 1194.22
C 853.565 1191.68 849.122 1189.75 845.44 1190.38
Z"/>
<path fill="url(#Gradient45)" stroke="none" d="
M 746.312 688.435
C 719.192 695.981 694.513 712.908 672.5 730.026
C 660.265 739.539 648.4 750.515 637.671 761.703
C 636.599 762.821 633.959 765.092 633.886 766.697
C 634.445 767.303 635.153 767.839 635.841 768.284
C 649.199 769.471 661.62 770.227 674.884 766.896
C 699.633 760.681 719.628 746.725 734.545 726.003
C 742.58 714.838 749.561 700.957 750.912 687.018
C 749.37 687.53 747.866 688.003 746.312 688.435
Z"/>
<path fill="url(#Gradient46)" stroke="none" d="
M 597.178 458.437
C 598.412 469.285 601.598 478.341 608.156 487.298
C 617.702 500.337 634.627 511.033 649.071 517.985
C 665.725 526.001 684.595 531.326 703.112 531.409
C 697.527 521.833 690.745 512.793 683.096 504.761
C 662.485 483.117 627.083 462.046 597.178 458.437
Z"/>
<path fill="url(#Gradient47)" stroke="none" d="
M 799.597 403.869
C 786.92 406.382 776.236 417.973 769.599 428.506
C 765.834 434.482 761.891 441.879 761.702 449.128
C 778.401 438.268 795.191 424.028 800.538 403.828
C 800.224 403.841 799.91 403.854 799.597 403.869
Z"/>
<path fill="url(#Gradient48)" stroke="none" d="
M 550.428 802.432
C 534.331 805.455 519.406 817.196 507.245 827.707
C 484.809 847.103 462.697 877.508 460.004 908.165
C 479.539 899.806 497.901 890.683 513.953 876.44
C 529.662 862.503 541.601 844.93 548.202 824.979
C 550.68 817.487 552.775 809.259 552.282 801.291
C 551.664 801.713 551.198 802.288 550.428 802.432
Z"/>
<path fill="url(#Gradient49)" stroke="none" d="
M 950.354 1086.49
C 940.099 1088.37 929.534 1093.6 921.111 1099.62
C 906.041 1110.39 894.338 1124.97 885.65 1141.21
C 881.835 1148.34 878.202 1156.48 877.248 1164.61
C 876.367 1172.14 879.664 1178.75 886.066 1182.76
C 902.521 1193.08 930.329 1186.61 946.5 1178.23
C 960.256 1171.11 972.489 1161.84 984.424 1152.03
C 987.681 1149.35 990.937 1146.67 994.193 1143.99
C 997.137 1141.57 999.556 1139.2 1003.5 1138.73
C 1006.45 1138.38 1008.94 1139.76 1011.3 1141.42
C 1016.93 1145.37 1022.09 1149.98 1027.58 1154.13
C 1038.64 1162.49 1050.51 1170.6 1063.5 1175.68
C 1084.02 1183.72 1115.36 1187.68 1127.84 1165.07
C 1127.54 1157.85 1124.16 1150.2 1121.09 1143.75
C 1114.17 1129.18 1103.46 1116.59 1090.8 1106.67
C 1078.76 1097.24 1064.34 1090.16 1049.26 1087.4
C 1032.43 1084.32 1017.08 1090.87 1004.64 1101.91
C 988.975 1091.07 969.133 1083.05 950.354 1086.49
Z"/>
<path fill="url(#Gradient50)" stroke="none" d="
M 1001.93 595.453
C 993.206 596.384 983.648 595.178 976.029 590.501
C 968.99 586.179 966.701 578.738 964.966 571.042
C 938.191 593.07 920.586 626.485 921.751 661.859
C 922.154 674.106 923.92 688.926 932.606 698.227
C 947.223 713.872 973.595 719.63 994.095 720.746
C 1020.36 722.176 1062.67 717.138 1079.83 694.599
C 1083.36 689.961 1084.34 683.61 1085.39 678.005
C 1087.2 668.4 1087.82 658.756 1086.96 649
C 1084.06 616.11 1066.63 589.606 1042.19 568.138
C 1038.81 581.353 1031.98 592.435 1018.01 596.027
C 1012.8 597.367 1007.25 594.885 1001.93 595.453
Z"/>
<path fill="url(#Gradient51)" stroke="none" d="
M 773.518 213.423
C 728.185 221.541 692.163 257.728 684.243 303.187
C 680.486 324.749 682.505 349.781 697.647 366.805
C 707.436 377.813 724.502 382.737 738.5 379.098
C 757.435 374.176 760.28 350.571 771.672 337.023
C 794.662 309.686 833.213 303.193 865.755 289.129
C 852.524 278.359 835.467 273.284 818.5 273.044
C 815.699 273.004 812.935 273.033 810.145 273.291
C 835.583 260.238 872.017 274.351 887.5 296.515
C 894.279 306.218 897.259 318.231 904.179 327.704
C 908.619 333.782 915.44 335.486 922.588 334.22
C 921.141 331.877 919.377 329.678 917.671 327.52
C 913.635 322.413 909.136 317.694 905.191 312.5
C 894.787 298.798 889.434 286.364 890.073 269
C 890.859 247.664 904.809 231.622 925.5 226.608
C 936.289 223.994 947.232 224.289 957.515 228.751
C 951.476 211.033 941.505 196.725 927.332 184.477
C 933.989 188.688 940.581 193.064 946.541 198.233
C 964.092 213.45 969.902 231.391 969.062 254.179
C 979.282 259.273 986.891 261.94 998.449 262.444
C 1006.46 262.794 1021.48 262.665 1028.27 257.712
C 1035.02 252.788 1035.06 242.444 1035.5 234.857
C 1036.43 219.005 1033.05 201.782 1026.65 187.233
C 1014.55 159.761 985.494 138.953 955.53 137.365
C 934.534 136.253 918.021 143.31 902.003 156.502
C 902.028 155.976 902.033 155.453 902.078 154.925
C 904.755 123.891 930.637 99.3181 959.104 89.4292
C 918.419 84.9899 875.006 91.957 840.571 115.039
C 810.793 134.999 789.273 163.729 777.901 197.707
C 776.183 202.841 774.926 208.181 773.518 213.423
Z"/>
<path fill="url(#Gradient52)" stroke="none" d="
M 1017.66 137.507
C 1030.13 146.539 1039.44 158.166 1045.93 172.081
C 1064.93 212.791 1047.98 256.909 1014 282.88
C 1044.35 279.287 1074.84 289.664 1101.5 303.369
C 1097.03 303.306 1092.08 301.139 1087.7 300.165
C 1052.4 292.323 1013.1 296.368 985.354 321.128
C 983.088 323.15 981.215 325.382 979.09 327.532
C 991.694 326.385 1008.11 325.913 1019.96 331.068
C 1025.21 333.354 1028.67 337.43 1031.85 342.1
C 1044.39 337.135 1046.04 319.857 1057.79 312.762
C 1072.1 304.118 1101.22 309.96 1115.96 316.308
C 1123.93 319.739 1131.26 324.264 1138.12 329.551
C 1116.26 325.314 1094.07 325.064 1073.67 335.214
C 1090.23 341.964 1107.41 345.492 1125.35 344.853
C 1132.83 344.586 1140.18 343.384 1147.56 342.228
C 1140.41 348.604 1130.32 352.418 1121.5 355.867
C 1117.63 357.382 1113.83 358.65 1109.87 359.935
C 1130.89 381.199 1166.69 380.296 1194 375.578
C 1174.48 388.447 1161.59 402.404 1138.51 409.388
C 1119.73 415.068 1100.76 411.71 1081.64 412.531
C 1080.89 412.579 1080.14 412.661 1079.4 412.779
C 1088.09 420.562 1098.6 426.551 1108.59 432.532
C 1126.37 443.178 1144.76 452.038 1165.5 454.436
C 1157.74 461.456 1145.78 464.966 1135.53 465.882
C 1112.24 467.965 1090.72 461.137 1070.73 449.513
C 1071.17 455.967 1072.49 461.787 1075.5 467.588
C 1084.01 483.96 1102.81 496.843 1116.64 508.746
C 1127.48 518.077 1138.27 527.957 1145.78 540.291
C 1125.49 534.037 1105.88 527.519 1086.37 518.951
C 1076.76 514.73 1067.13 510.054 1058.5 504.04
C 1063.58 511.898 1069.87 519.09 1076.22 525.945
C 1093.92 545.029 1116.63 561.879 1138.83 575.304
C 1165.93 591.69 1195.46 601.384 1225.5 610.736
C 1194.22 618.677 1155.88 618.362 1125.5 607.112
C 1113.4 602.629 1104.24 595.306 1093.48 588.521
C 1092.7 588.03 1091.93 587.57 1091.1 587.167
C 1100.88 610.043 1120.73 624.057 1142.5 633.921
C 1157.48 640.705 1173.28 645.784 1188.5 652.008
C 1166.79 657.375 1143.67 658.894 1121.5 655.869
C 1106.4 653.81 1084.99 651.159 1072.48 641.745
C 1050.85 625.477 1059.86 596.266 1044.35 577.102
C 1040.38 592.456 1028.82 605.027 1013.14 608.41
C 992.669 612.828 969.172 603.585 963.439 581.831
C 954.67 598.275 957.893 618.203 948.076 634.5
C 940.308 647.397 926.285 650.871 912.5 653.181
C 888.293 657.238 862.604 660.169 838.5 654.475
C 868.805 642.767 907.139 630.221 921.596 598.122
C 921.946 597.297 922.129 596.483 922.144 595.681
C 907.542 606.222 890.653 613.722 872.5 615.517
C 843.958 618.339 812.889 616.356 785.76 606.623
C 809.681 599.511 833.932 592.58 856.5 581.701
C 884.81 568.054 918.561 544.732 937.145 518.858
C 943.318 510.265 951.417 499.867 952.172 489.102
C 946.477 498.199 930.386 506.048 920.695 510.372
C 900.351 519.448 878.84 525.705 857.803 532.909
C 868.519 516.108 883.686 500.916 898.443 487.581
C 915.36 472.294 933.247 456.901 929.518 431.859
C 903.623 447.219 874.877 464.267 843.5 459.057
C 834.934 457.635 825.71 453.997 818.872 448.554
C 839.973 446.624 858.723 437.477 876.5 426.579
C 888.246 419.378 901.392 413.078 911.162 403.192
C 887.241 401.606 868.365 409.641 844.5 403.563
C 827.616 399.263 812.558 388.436 797.122 381.102
C 800.449 382.139 803.583 383.188 807 383.898
C 831.929 389.077 862.314 387.351 883.998 372.702
C 885.66 371.58 887.131 370.381 888.657 369.088
C 871.86 366.416 856.289 359.991 842.5 349.945
C 839.855 348.018 837.189 346.183 835.19 343.546
C 848.099 345.889 863.048 348.562 876.163 346.378
C 886.051 344.732 895.478 338.705 904.5 334.579
C 876.247 309.934 833.191 308.65 798.344 317.816
C 800.233 311.984 810.194 305.235 815.296 302.085
C 833.288 290.974 855.087 289.887 874.99 296.2
C 879.552 290.325 880.909 280.792 884.023 274
C 889.515 262.021 899.384 251.535 912.5 248.087
C 919.648 246.207 926.961 249.717 933.244 252.79
C 940.415 256.296 946.236 261.67 951.5 267.572
C 959.478 276.518 963.37 288.781 967.971 299.624
C 968.046 299.773 968.224 300.222 968.292 300.374
C 975.872 292.195 984.426 285.23 994 279.478
C 972.354 277.003 955.304 268.609 946.541 247.772
C 936.476 223.841 945.036 196.926 960.196 177.062
C 972.667 160.724 990.377 149.498 1007.62 138.793
C 1010.84 138.568 1014.26 137.892 1017.66 137.507
Z"/>
</svg>