<svg xmlns="http://www.w3.org/2000/svg" viewBox="0 0 1024 1024" width="1024" height="1024" preserveAspectRatio="xMidYMid meet" role="img" aria-label="Burma AI Studio app icon"><defs><linearGradient id="bg" x1="0" y1="0" x2="1024" y2="1024" gradientUnits="userSpaceOnUse"><stop stop-color="#fffdfa"/><stop offset="1" stop-color="#fff7ec"/></linearGradient><linearGradient id="red" x1="200" y1="170" x2="810" y2="820" gradientUnits="userSpaceOnUse"><stop stop-color="#7f0815"/><stop offset=".48" stop-color="#a51223"/><stop offset="1" stop-color="#5f0510"/></linearGradient><linearGradient id="gold" x1="270" y1="690" x2="860" y2="455" gradientUnits="userSpaceOnUse"><stop stop-color="#a67122"/><stop offset=".38" stop-color="#f5d675"/><stop offset=".72" stop-color="#c99536"/><stop offset="1" stop-color="#ffe690"/></linearGradient><filter id="shadow" x="-20%" y="-20%" width="140%" height="140%"><feDropShadow dx="0" dy="18" stdDeviation="24" flood-color="#2b0509" flood-opacity=".14"/></filter></defs><rect x="64" y="64" width="896" height="896" rx="210" fill="url(#bg)" filter="url(#shadow)"/><g transform="translate(130 155) scale(1.02)"><path d="M178 44c52 25 46 66 20 103 45-32 85-8 87 42 1 31-16 57-43 77 34-2 60 14 62 48 2 52-54 88-104 69-38-14-57-45-55-83 2-43 32-74 55-105 28-38 31-86-22-151Z" fill="url(#red)"/><path d="M205 158c9 58-78 76-48 151 14-47 79-69 48-151Z" fill="url(#gold)" opacity=".96"/><path d="M297 44c16 81 88 115 158 154h-150c-15-25-38-48-70-69-44 39-87 67-127 102H45C160 172 252 127 297 44Z" fill="url(#red)"/><text x="58" y="640" font-family="Georgia,'Times New Roman',serif" font-size="465" font-weight="800" letter-spacing="-38" fill="url(#red)">B</text><text x="425" y="640" font-family="Georgia,'Times New Roman',serif" font-size="452" font-weight="800" letter-spacing="-26" fill="url(#red)">A</text><path d="M78 641c168 39 355 32 523-9 75-18 135-43 185-82-26 69-123 118-259 148-160 35-346 30-475-8 10-19 17-34 26-49Z" fill="url(#red)"/><path d="M302 608c134-35 267-60 431-129 16 61-99 120-231 169-104 38-191 80-261 159 20-82 28-149 61-199Z" fill="url(#gold)"/><path d="M523 560c42-67 81-129 118-190 60 105 126 210 186 321-43-10-83-22-126-35-19-40-39-84-59-125-24 40-48 82-73 124-16-31-31-62-46-95Z" fill="url(#red)"/><path d="M638 590c18-44 60-55 97-35-24 14-31 29-22 48 8 18 28 24 52 18-25 41-103 24-127-31Z" fill="url(#gold)"/><path d="M345 636c94 16 201 13 298-2-94 43-218 54-328 39 9-13 17-25 30-37Z" fill="#fffdf8" opacity=".35"/></g></svg>