<svg version="1.1" xmlns="http://www.w3.org/2000/svg" style="display: block;" viewBox="0 0 2048 2048" width="1254" height="1254" preserveAspectRatio="none">
<defs>
	<linearGradient id="Gradient1" gradientUnits="userSpaceOnUse" x1="1479.78" y1="970.409" x2="1522.55" y2="985.202">
		<stop class="stop0" offset="0" stop-opacity="1" stop-color="rgb(222,183,100)"/>
		<stop class="stop1" offset="1" stop-opacity="1" stop-color="rgb(255,236,145)"/>
	</linearGradient>
	<linearGradient id="Gradient2" gradientUnits="userSpaceOnUse" x1="1409.03" y1="1244.44" x2="1324.53" y2="1229.14">
		<stop class="stop0" offset="0" stop-opacity="1" stop-color="rgb(190,139,59)"/>
		<stop class="stop1" offset="1" stop-opacity="1" stop-color="rgb(255,230,146)"/>
	</linearGradient>
	<linearGradient id="Gradient3" gradientUnits="userSpaceOnUse" x1="943.573" y1="1268" x2="1187.33" y2="1284.19">
		<stop class="stop0" offset="0" stop-opacity="1" stop-color="rgb(186,133,54)"/>
		<stop class="stop1" offset="1" stop-opacity="1" stop-color="rgb(240,203,115)"/>
	</linearGradient>
	<linearGradient id="Gradient4" gradientUnits="userSpaceOnUse" x1="1226.81" y1="1104.99" x2="1250.78" y2="1105.92">
		<stop class="stop0" offset="0" stop-opacity="1" stop-color="rgb(219,178,93)"/>
		<stop class="stop1" offset="1" stop-opacity="1" stop-color="rgb(251,221,138)"/>
	</linearGradient>
	<linearGradient id="Gradient5" gradientUnits="userSpaceOnUse" x1="1505.72" y1="1073.1" x2="1193.1" y2="1065.83">
		<stop class="stop0" offset="0" stop-opacity="1" stop-color="rgb(215,170,85)"/>
		<stop class="stop1" offset="1" stop-opacity="1" stop-color="rgb(255,234,150)"/>
	</linearGradient>
	<linearGradient id="Gradient6" gradientUnits="userSpaceOnUse" x1="515.846" y1="720.016" x2="495.993" y2="719.942">
		<stop class="stop0" offset="0" stop-opacity="1" stop-color="rgb(188,116,77)"/>
		<stop class="stop1" offset="1" stop-opacity="1" stop-color="rgb(196,138,122)"/>
	</linearGradient>
	<linearGradient id="Gradient7" gradientUnits="userSpaceOnUse" x1="648.573" y1="626.961" x2="613.491" y2="621.333">
		<stop class="stop0" offset="0" stop-opacity="1" stop-color="rgb(216,174,86)"/>
		<stop class="stop1" offset="1" stop-opacity="1" stop-color="rgb(240,207,117)"/>
	</linearGradient>
	<linearGradient id="Gradient8" gradientUnits="userSpaceOnUse" x1="535.981" y1="749.676" x2="581.777" y2="747.055">
		<stop class="stop0" offset="0" stop-opacity="1" stop-color="rgb(181,129,50)"/>
		<stop class="stop1" offset="1" stop-opacity="1" stop-color="rgb(237,199,109)"/>
	</linearGradient>
	<linearGradient id="Gradient9" gradientUnits="userSpaceOnUse" x1="682.55" y1="730.324" x2="589.461" y2="662.156">
		<stop class="stop0" offset="0" stop-opacity="1" stop-color="rgb(222,181,94)"/>
		<stop class="stop1" offset="1" stop-opacity="1" stop-color="rgb(251,222,135)"/>
	</linearGradient>
</defs>
<path transform="translate(0,0)" fill="rgb(255,255,255)" d="M 561.96 174.405 C 565.731 173.945 572.504 173.959 576.475 173.942 L 1214.15 174.031 L 1390.89 173.984 C 1436.75 173.966 1490.77 171.304 1534.72 180.604 C 1611.95 196.724 1682.88 234.805 1738.98 290.27 C 1792.06 343.13 1829.67 407.077 1847.72 480.045 C 1862.29 538.969 1859.01 598.658 1859.02 659.079 L 1859.06 831.135 L 1859.18 1419.86 C 1859.23 1485.63 1851.33 1542.33 1822.74 1602.06 C 1801.08 1647.31 1776.05 1683.98 1740.49 1719.47 C 1685.36 1774.69 1615.26 1812.54 1538.85 1828.35 C 1519.52 1832.29 1502.83 1835.01 1482.95 1835 C 1473.51 1835.21 1463.95 1836.29 1454.1 1836.3 C 1381.12 1836.38 1308.08 1836.19 1235.1 1836.17 L 854.538 1835.98 L 667.758 1836.23 C 618.313 1836.33 568.254 1838.7 519.692 1830.26 C 341.153 1799.19 202.653 1647.5 188.423 1466.59 C 186.366 1440.43 187.068 1413.54 187.051 1387.1 L 187.042 1272.45 L 187.038 921.917 L 187.132 673.5 C 187.186 619.58 184.343 558.386 193.707 505.595 C 205.782 437.523 239.615 365.618 285.226 313.32 C 355.687 232.52 455.069 182.633 561.96 174.405 z"/>
<path transform="translate(0,0)" fill="rgb(127,8,21)" d="M 580.654 450.7 C 587.484 452.268 594.169 454.416 600.635 457.119 C 677.824 489.148 576.356 514.923 651.062 552.492 C 690.671 572.411 696.156 605.929 678.384 645.851 C 709.985 636.453 694.636 613.516 732.345 596.668 C 714.66 646.495 791.947 649.754 727.412 705.019 C 741.454 704.873 746.782 703.082 759.023 697.498 C 759.046 699.931 758.951 702.364 758.739 704.789 C 753.243 764.734 649.024 788.965 614.759 745.913 L 614.975 744.641 L 618.898 745.763 C 680.062 742.236 643.915 689.059 587.225 716.645 C 553.64 744.081 563.147 767.923 592.514 792.529 C 627.619 814.933 661.537 824.668 703.065 826.822 C 807.787 828.424 1023.49 813.985 1100.51 894.27 C 1120.07 914.657 1130.94 939.952 1130.05 968.336 C 1129.17 996.531 1116.87 1019.58 1096.43 1038.6 C 1066.5 1066.44 1028.48 1080.37 989.852 1091.22 C 1004.16 1094 1018.62 1095.88 1032.87 1098.85 C 1083.67 1109.44 1132.32 1126.35 1173.17 1159.22 C 1171.6 1160.33 1164.6 1165.37 1163.35 1165.67 C 1148.09 1169.33 1132.96 1172.71 1117.95 1177.46 C 1101.93 1182.54 1077.3 1197.23 1060.99 1197.76 C 1056.49 1191.82 1051.6 1186.2 1046.34 1180.93 C 970.172 1104.59 828.071 1110.55 728.1 1110.56 C 728.206 1202.09 727.292 1295.18 728.297 1386.53 C 679.598 1386.84 639.065 1386.39 590.558 1380.5 L 590.503 1126.57 L 590.552 1030.26 C 590.554 1018.93 590.869 1007.33 590.542 995.906 C 589.534 960.771 596.098 918.553 568.397 891.403 C 551.276 874.623 533.297 868.953 510.173 877.317 C 518.503 880.76 526.783 884.084 534.76 888.294 C 540.665 891.41 546.078 897.777 540.687 904.29 C 522.299 926.505 485.642 925.168 463.5 909.476 C 443.959 895.628 441.211 869.705 437.297 847.856 C 452.993 856.847 458.886 858.839 477.032 858.402 C 437.48 834.761 408.831 813.593 410.908 763.092 C 412.028 735.85 420.669 716.812 433.324 693.381 C 422.837 761.42 463.24 797.257 519.792 824.088 C 527.972 824.7 551.127 826.249 557.861 828.532 L 560.049 825.433 C 486.703 801.44 425.87 741.494 472.674 660.866 C 480.791 646.884 494.142 635.225 503.644 622.052 C 515.284 605.916 510.321 597.885 497.329 585.987 C 520.232 586.93 550.989 588.169 562.274 612.314 C 565.346 618.888 566.121 624.736 567.347 631.811 C 568.498 630.982 569.618 630.112 570.706 629.201 C 592.961 610.207 574.234 590.057 559.986 575.025 C 526.871 540.089 553.696 519.832 581.585 497.382 C 601.613 481.259 596.053 467.531 580.654 450.7 z"/>
<path transform="translate(0,0)" fill="url(#Gradient9)" d="M 635.303 620.237 C 636.365 633.71 635.63 649.064 631.543 662.014 L 631.869 663.029 C 635.246 662.521 637.448 661.901 640.799 662.223 C 634.938 672.033 629.093 676.738 620.514 684.275 C 635.257 682.466 646.66 683.321 661.368 684.977 C 665.547 686.287 666.846 686.792 671.128 687.222 L 672.632 688.72 C 669.743 705.3 670.766 726.056 674.182 742.715 C 673.697 743.915 673.138 745.422 672.586 746.56 L 670.789 747.19 C 653.255 753.155 635.834 754.018 618.898 745.763 C 680.062 742.236 643.915 689.059 587.225 716.645 L 586.518 715.968 C 583.303 716.07 584.9 715.773 581.724 718.433 C 575.522 707.134 572.648 699.469 573.029 686.39 C 574.506 684.682 574.835 684.451 576.65 683.221 L 578.276 682.131 L 577.851 680.538 C 578.828 679.62 608.11 658.796 609.447 658.031 C 621.303 652.337 627.29 643.739 631.561 631.525 C 632.851 627.776 634.098 624.014 635.303 620.237 z"/>
<path transform="translate(0,0)" fill="rgb(226,187,105)" d="M 519.792 824.088 C 527.972 824.7 551.127 826.249 557.861 828.532 C 560.593 828.977 573.565 830.918 575.329 831.725 L 575.125 832.819 C 581.701 835.911 589.231 837.92 595.933 840.678 C 621.992 851.4 648.353 871.072 657.819 898.904 C 666.078 923.186 664.484 958.178 664.566 984.292 L 664.215 1080.69 L 663.919 1134.97 C 663.866 1143.66 664.164 1158.07 663.098 1166.5 C 661.58 1155.32 662.487 1115.59 662.52 1101.99 C 659.948 1104.31 665.514 1184.1 658.483 1194.29 C 653.515 1189.57 656.575 1149.57 656.368 1140.28 L 654.143 994.865 C 654.021 983.643 655.173 954.343 653.357 944.446 C 652.715 935.528 652.104 930.17 650.666 921.217 C 648.708 911.38 640.742 884.167 629.451 882.566 C 623.915 878.096 618.199 870.112 610.874 865.317 C 593.797 854.14 575.202 847.636 556.57 840.219 C 544.132 835.258 531.866 829.878 519.792 824.088 z"/>
<path transform="translate(0,0)" fill="url(#Gradient8)" d="M 577.851 680.538 L 578.276 682.131 L 576.65 683.221 C 574.835 684.451 574.506 684.682 573.029 686.39 C 572.648 699.469 575.522 707.134 581.724 718.433 C 584.9 715.773 583.303 716.07 586.518 715.968 L 587.225 716.645 C 553.64 744.081 563.147 767.923 592.514 792.529 L 590.817 793.063 C 588.596 791.654 586.742 790.486 584.62 788.894 C 583.095 796.01 582.248 799.992 581.716 807.204 C 585.584 809.7 589.622 810.858 592.375 814.331 C 584.584 811.683 564.966 803.105 559.5 797.525 C 558.684 794.465 553.681 789.804 551.555 787.024 C 516.658 741.377 537.853 707.271 577.851 680.538 z"/>
<path transform="translate(0,0)" fill="rgb(255,255,255)" d="M 613.798 637.343 C 614.909 642.046 610.696 651.104 609.447 658.031 C 608.11 658.796 578.828 679.62 577.851 680.538 C 537.853 707.271 516.658 741.377 551.555 787.024 C 553.681 789.804 558.684 794.465 559.5 797.525 C 555.147 794.955 551.03 792.004 547.198 788.708 C 524.907 769.314 517.848 739.573 531.186 712.911 C 544.03 687.239 569.832 674.307 591.928 657.938 C 600.392 651.668 606.869 645.182 613.798 637.343 z"/>
<path transform="translate(0,0)" fill="rgb(195,146,66)" d="M 708.311 661.769 C 715.069 681.01 703.313 690.803 688.62 701.029 C 701.883 722.244 694.437 736.375 672.586 746.56 C 673.138 745.422 673.697 743.915 674.182 742.715 C 670.766 726.056 669.743 705.3 672.632 688.72 L 671.128 687.222 C 666.846 686.792 665.547 686.287 661.368 684.977 C 684.085 686.19 698.896 685.52 708.311 661.769 z"/>
<path transform="translate(0,0)" fill="url(#Gradient7)" d="M 615.156 582.403 C 625.693 589.218 630.773 593.09 638.693 602.976 C 651.042 618.392 653.499 646.326 640.799 662.223 C 637.448 661.901 635.246 662.521 631.869 663.029 L 631.543 662.014 C 635.63 649.064 636.365 633.71 635.303 620.237 C 634.098 624.014 632.851 627.776 631.561 631.525 C 627.29 643.739 621.303 652.337 609.447 658.031 C 610.696 651.104 614.909 642.046 613.798 637.343 C 626.786 615.291 628.669 604.946 615.156 582.403 z"/>
<path transform="translate(0,0)" fill="rgb(244,212,133)" d="M 653.357 944.446 C 655.173 954.343 654.021 983.643 654.143 994.865 L 656.368 1140.28 C 656.575 1149.57 653.515 1189.57 658.483 1194.29 C 665.514 1184.1 659.948 1104.31 662.52 1101.99 C 662.487 1115.59 661.58 1155.32 663.098 1166.5 C 663.453 1200.55 660.49 1237.82 659.119 1272.08 C 658.517 1287.11 658.584 1315.39 656.552 1328.83 C 654.324 1316.98 652.895 1275.25 652.993 1261.44 L 651.699 1219.32 C 653.289 1213.4 652.056 1208.18 654.557 1204.08 C 654.655 1200.28 653.896 1192.38 653.858 1187.57 L 652.54 1109.02 C 651.996 1055.55 652.948 998.16 653.357 944.446 z"/>
<path transform="translate(0,0)" fill="rgb(255,255,255)" d="M 654.557 1204.08 C 656.121 1213.77 656.852 1256.63 655.72 1265.83 L 654.786 1266.87 C 653.57 1264.36 653.586 1264.19 652.993 1261.44 L 651.699 1219.32 C 653.289 1213.4 652.056 1208.18 654.557 1204.08 z"/>
<path transform="translate(0,0)" fill="rgb(244,212,133)" d="M 592.375 814.331 C 589.622 810.858 585.584 809.7 581.716 807.204 C 582.248 799.992 583.095 796.01 584.62 788.894 C 586.742 790.486 588.596 791.654 590.817 793.063 L 592.514 792.529 C 627.619 814.933 661.537 824.668 703.065 826.822 C 664.595 827.904 629.257 830.787 592.375 814.331 z"/>
<path transform="translate(0,0)" fill="rgb(250,232,189)" d="M 650.666 921.217 C 652.104 930.17 652.715 935.528 653.357 944.446 C 652.948 998.16 651.996 1055.55 652.54 1109.02 L 653.858 1187.57 C 653.896 1192.38 654.655 1200.28 654.557 1204.08 C 652.056 1208.18 653.289 1213.4 651.699 1219.32 C 650.661 1209.88 650.864 1192.29 650.626 1182.28 C 649.973 1153.57 649.561 1124.86 649.388 1096.14 L 649.057 1005.03 C 649.02 990.048 648.374 968.669 649.32 954.278 C 650.967 957.21 650.334 959.149 650.388 963.035 L 650.978 963.484 C 651.131 958.912 651.348 953.942 651.032 949.372 C 650.379 939.902 646.219 929.95 650.666 921.217 z"/>
<path transform="translate(0,0)" fill="rgb(255,255,255)" d="M 629.451 882.566 C 640.742 884.167 648.708 911.38 650.666 921.217 C 646.219 929.95 650.379 939.902 651.032 949.372 C 651.348 953.942 651.131 958.912 650.978 963.484 L 650.388 963.035 C 650.334 959.149 650.967 957.21 649.32 954.278 C 647.088 923.924 645.599 908.879 629.451 882.566 z"/>
<path transform="translate(0,0)" fill="rgb(244,217,215)" d="M 560.049 825.433 C 573.718 828.135 584.667 829.534 598.535 831.202 C 590.067 832.114 583.914 832.175 575.329 831.725 C 573.565 830.918 560.593 828.977 557.861 828.532 L 560.049 825.433 z"/>
<path transform="translate(0,0)" fill="rgb(255,255,255)" d="M 728.154 860.041 C 798.549 859.193 918.93 852.849 968.077 911.695 C 983.458 930.419 990.825 954.458 988.576 978.585 C 985.923 1005.27 972.751 1025.36 952.395 1042.05 C 895.404 1086.56 797.935 1080.1 728.204 1079.95 C 727.166 1007.62 728.143 932.539 728.154 860.041 z"/>
<path transform="translate(0,0)" fill="rgb(226,187,105)" d="M 1053.78 978.89 C 1061.46 982.735 1059.98 983.643 1064.95 987.341 C 1055.32 1021.95 1025.38 1043.47 994.97 1058.9 C 1026.5 1035.79 1045.38 1018.66 1053.78 978.89 z"/>
<path transform="translate(0,0)" fill="rgb(195,146,66)" d="M 1048.31 934.778 C 1034.05 902.906 1014.73 889.548 986.733 870.856 C 1013.88 881.971 1042.94 903.149 1057.78 929.062 C 1053.99 930.721 1050.78 931.607 1048.31 934.778 z"/>
<path transform="translate(0,0)" fill="url(#Gradient6)" d="M 515.507 677.68 L 517.939 678.689 C 513.714 684.082 510.248 690.028 507.637 696.361 C 497.731 720.329 500.548 744.843 510.325 768.1 C 486.319 735.917 490.79 707.525 515.507 677.68 z"/>
<path transform="translate(0,0)" fill="rgb(244,212,133)" d="M 1048.31 934.778 C 1050.78 931.607 1053.99 930.721 1057.78 929.062 C 1063.01 940.73 1066.5 950.279 1067.39 963.229 C 1061.63 963.541 1059.51 962.487 1054.87 965.019 C 1053.36 952.685 1052.49 946.366 1048.31 934.778 z"/>
<path transform="translate(0,0)" fill="rgb(250,232,189)" d="M 1054.87 965.019 C 1059.51 962.487 1061.63 963.541 1067.39 963.229 C 1067.76 972.502 1067.14 978.242 1064.95 987.341 C 1059.98 983.643 1061.46 982.735 1053.78 978.89 C 1054.37 974.2 1054.59 969.728 1054.87 965.019 z"/>
<path transform="translate(0,0)" fill="rgb(179,90,68)" d="M 515.507 677.68 C 521.244 670.463 526.036 665.395 533.44 659.71 C 528.428 666.523 523.428 672.293 517.939 678.689 L 515.507 677.68 z"/>
<path transform="translate(0,0)" fill="rgb(127,8,21)" d="M 1291.24 826.962 L 1362.61 826.941 C 1367.66 836.733 1376.54 850.504 1382.49 860.331 L 1418.71 920.12 L 1520.38 1089.75 L 1505.11 1096.22 C 1509.11 1104.84 1497.12 1128.35 1500.63 1144.59 C 1495.3 1155.24 1491.81 1162.47 1485.12 1172.37 C 1478.05 1173.22 1463.39 1177.12 1455.98 1178.97 C 1446.36 1181.37 1433.5 1183.47 1424.43 1186.05 C 1362.33 1200.55 1294.39 1206.98 1231.79 1221.3 L 1231.05 1220.54 C 1221.5 1219.41 1198.48 1231.75 1191.09 1226.28 C 1189.22 1218.27 1191.46 1179.89 1192.71 1170.4 C 1198.65 1168.81 1226.33 1162.32 1228.74 1158.68 C 1232.87 1156.45 1241.35 1152.91 1245.77 1151.06 C 1261.54 1144.48 1304.64 1117.05 1267.72 1104.81 C 1261.33 1107.75 1258.8 1109.93 1256.78 1116.88 C 1257.05 1120.51 1257.59 1123.11 1256.39 1126.52 C 1245.05 1134.64 1227.25 1122.83 1225.6 1110.03 C 1224.03 1097.76 1229.34 1090.89 1236.07 1081.73 C 1239.84 1087.17 1246.45 1093.15 1253.5 1091.18 C 1247 1072.45 1248.7 1065.28 1259.61 1048.88 C 1267.94 1036.85 1281.03 1028.77 1294.7 1024.14 C 1290.99 1029.32 1286.02 1037.14 1288.48 1043.19 C 1295.84 1061.25 1309.67 1068.34 1318.35 1087.56 C 1332.89 1108.63 1328.35 1126.41 1308.17 1141.79 C 1303.24 1145.47 1294.73 1149.09 1288.91 1151.82 L 1357.08 1137.28 C 1366.73 1135.22 1383.78 1132.07 1392.63 1129.17 C 1355.14 1064.83 1317.09 1000.83 1278.47 937.161 C 1240.14 996.509 1197.83 1067.48 1162.11 1128.54 C 1146.22 1118.73 1135.62 1113.76 1118.83 1106.2 L 1291.24 826.962 z"/>
<path transform="translate(0,0)" fill="url(#Gradient5)" d="M 1331.43 896.327 C 1343.43 911.818 1366.17 949.792 1377.78 968.044 C 1408.23 1014.9 1437.84 1062.3 1466.58 1110.23 C 1479.88 1105.82 1492.02 1101.25 1505.11 1096.22 C 1509.11 1104.84 1497.12 1128.35 1500.63 1144.59 C 1495.3 1155.24 1491.81 1162.47 1485.12 1172.37 C 1478.05 1173.22 1463.39 1177.12 1455.98 1178.97 C 1446.36 1181.37 1433.5 1183.47 1424.43 1186.05 C 1362.33 1200.55 1294.39 1206.98 1231.79 1221.3 L 1231.05 1220.54 C 1221.5 1219.41 1198.48 1231.75 1191.09 1226.28 C 1189.22 1218.27 1191.46 1179.89 1192.71 1170.4 C 1198.65 1168.81 1226.33 1162.32 1228.74 1158.68 C 1232.87 1156.45 1241.35 1152.91 1245.77 1151.06 C 1261.54 1144.48 1304.64 1117.05 1267.72 1104.81 C 1261.33 1107.75 1258.8 1109.93 1256.78 1116.88 C 1257.05 1120.51 1257.59 1123.11 1256.39 1126.52 C 1245.05 1134.64 1227.25 1122.83 1225.6 1110.03 C 1224.03 1097.76 1229.34 1090.89 1236.07 1081.73 C 1239.84 1087.17 1246.45 1093.15 1253.5 1091.18 C 1247 1072.45 1248.7 1065.28 1259.61 1048.88 C 1267.94 1036.85 1281.03 1028.77 1294.7 1024.14 C 1290.99 1029.32 1286.02 1037.14 1288.48 1043.19 C 1295.84 1061.25 1309.67 1068.34 1318.35 1087.56 C 1332.89 1108.63 1328.35 1126.41 1308.17 1141.79 C 1303.24 1145.47 1294.73 1149.09 1288.91 1151.82 L 1357.08 1137.28 C 1366.73 1135.22 1383.78 1132.07 1392.63 1129.17 C 1402.4 1128.65 1443.2 1117.12 1453.14 1114.36 C 1424.24 1066.22 1396.57 1017.35 1370.18 967.787 C 1358 945.422 1342.23 918.7 1331.43 896.327 z"/>
<path transform="translate(0,0)" fill="url(#Gradient4)" d="M 1236.07 1081.73 C 1239.84 1087.17 1246.45 1093.15 1253.5 1091.18 L 1253.61 1092.68 C 1249.88 1096.74 1251.26 1119.9 1253.56 1125.07 L 1254.97 1125.1 C 1256.41 1121.88 1256.38 1120.32 1256.78 1116.88 C 1257.05 1120.51 1257.59 1123.11 1256.39 1126.52 C 1245.05 1134.64 1227.25 1122.83 1225.6 1110.03 C 1224.03 1097.76 1229.34 1090.89 1236.07 1081.73 z"/>
<path transform="translate(0,0)" fill="rgb(226,187,105)" d="M 1259.61 1048.88 C 1266.68 1059.97 1267.18 1087.83 1268.98 1101.98 L 1267.72 1104.81 C 1261.33 1107.75 1258.8 1109.93 1256.78 1116.88 C 1256.38 1120.32 1256.41 1121.88 1254.97 1125.1 L 1253.56 1125.07 C 1251.26 1119.9 1249.88 1096.74 1253.61 1092.68 L 1253.5 1091.18 C 1247 1072.45 1248.7 1065.28 1259.61 1048.88 z"/>
<path transform="translate(0,0)" fill="rgb(195,146,66)" d="M 1308.17 1141.79 C 1304.28 1133.44 1306.35 1097.67 1311.7 1088.9 C 1312.96 1086.84 1316.37 1087.49 1318.35 1087.56 C 1332.89 1108.63 1328.35 1126.41 1308.17 1141.79 z"/>
<path transform="translate(0,0)" fill="rgb(250,232,189)" d="M 1333.45 1171.26 L 1339.09 1170.58 L 1340.44 1171.32 L 1341.27 1171.19 C 1337.9 1173.97 1323.16 1175.91 1318.5 1176.53 C 1315.09 1177.21 1313.81 1177.72 1310.38 1176.96 L 1311.06 1175.86 C 1319.61 1172.72 1324.3 1172.4 1333.45 1171.26 z"/>
<path transform="translate(0,0)" fill="rgb(195,146,66)" d="M 1381.68 1164.21 L 1382.65 1164.2 L 1382.64 1165.15 C 1375.83 1168.48 1360.32 1170.43 1352.19 1171.66 L 1350.63 1171.59 C 1354.22 1169.08 1376.06 1165.31 1381.68 1164.21 z"/>
<path transform="translate(0,0)" fill="rgb(127,8,21)" d="M 483.859 1199.05 C 485.142 1200.47 483.247 1206.76 483.317 1210.05 C 483.779 1231.7 508.978 1234.54 520.813 1245.65 C 529.628 1253.93 528.254 1270.84 527.805 1282.27 C 540.128 1275.22 541.637 1273.96 545.925 1260.76 C 565.432 1286.8 577.438 1318.17 537.043 1331.87 C 537.071 1331.14 537.089 1330.4 537.1 1329.67 C 537.148 1325.26 536.435 1320.53 532.82 1317.53 C 529.602 1314.86 524.254 1314.23 520.279 1315.11 C 515.072 1316.25 510.749 1320.19 507.945 1324.59 C 504.597 1329.83 503.812 1335.82 505.384 1341.82 C 509.588 1357.88 526.337 1371.37 540.054 1379.4 C 560.232 1391.2 583.465 1397.24 606.321 1401.42 C 691.979 1417.07 887.245 1417.03 971.131 1395.37 C 1013.24 1384.5 1048.89 1363.83 1073.95 1327.58 C 1080.01 1318.83 1084.71 1309.36 1090.12 1300.22 C 1093.4 1294.69 1096.93 1289.55 1101.9 1285.36 C 1128.84 1262.62 1187.4 1248.95 1222.25 1240 L 1232.19 1237.83 C 1237.64 1259.19 1237.92 1281.54 1233.01 1303.03 C 1224.33 1340.3 1197.4 1366.69 1165.73 1386.23 C 1134.25 1405.65 1093.18 1420.62 1056.73 1428.31 C 953.63 1450.05 841.872 1450.23 736.737 1447.91 C 676.733 1445.95 615.164 1444.34 556.504 1430.78 C 516.411 1421.52 464.77 1397.81 451.548 1355.19 C 445.254 1334.9 447.926 1306.6 455.92 1287.35 C 459.003 1279.92 472.931 1264.86 472.566 1257.09 C 471.256 1229.23 449.717 1218.22 483.859 1199.05 z"/>
<path transform="translate(0,0)" fill="rgb(127,8,21)" d="M 1099.17 491.653 C 1104.52 506.639 1109.37 521.105 1117.67 534.789 C 1147.88 584.618 1198.13 614.641 1248.44 640.783 C 1294.44 664.683 1343.47 689.056 1348.32 746.887 C 1367.53 746.813 1398.61 748.061 1411.44 763.618 C 1429.58 785.595 1435.48 790.623 1464.14 796.707 C 1439.5 797.433 1413.06 796.949 1388.26 796.936 L 1249.2 797.019 C 1304.04 719.512 1185.71 685.64 1139.67 653.585 C 1122.12 641.369 1113.3 631.31 1100.08 614.868 C 1098.07 614.543 1096.45 617.581 1095.16 619.383 C 1066.69 659.091 1018.96 673.56 979.178 698.638 C 940.93 722.749 921.37 755.225 950.118 796.906 L 739.477 796.917 C 751.42 792.878 771.925 788.467 778.551 777.621 C 795.932 749.171 816.253 747.194 849.729 746.862 C 861.752 633.627 1054.99 644.593 1099.17 491.653 z"/>
<path transform="translate(0,0)" fill="rgb(127,8,21)" d="M 1502.27 1167.91 C 1507.82 1164.34 1547.14 1152.33 1555.74 1149.29 C 1583.05 1192.56 1608.28 1238.74 1634.96 1282.52 C 1677.55 1352.42 1697.41 1418.71 1793.4 1416.95 L 1793.3 1435.81 C 1716.8 1444.87 1626.01 1444.66 1562.65 1395.04 C 1549.82 1385.18 1538.33 1373.7 1528.46 1360.88 C 1512.55 1339.99 1489.66 1297.9 1475.77 1273.99 C 1459.77 1246.45 1438.94 1213.74 1424.43 1186.05 C 1433.5 1183.47 1446.36 1181.37 1455.98 1178.97 C 1463.39 1177.12 1478.05 1173.22 1485.12 1172.37 L 1487.46 1171.82 C 1492.4 1170.22 1497.13 1168.38 1502.27 1167.91 z"/>
<path transform="translate(0,0)" fill="rgb(226,187,105)" d="M 1526.47 1211.94 C 1543.35 1239.63 1559.2 1271.64 1575.3 1300.05 C 1579.01 1306.59 1595.22 1335.65 1597.05 1340.91 L 1596.36 1339.27 L 1595.49 1339.24 C 1580.82 1318.87 1566.95 1295.53 1552.41 1274.77 C 1549.2 1270.19 1528.69 1239.39 1527.4 1235.91 L 1528.18 1234.04 C 1527 1229.16 1527.05 1227.93 1526.91 1222.81 L 1527.13 1223.25 C 1527.65 1220.09 1526.65 1215.47 1526.47 1211.94 z"/>
<path transform="translate(0,0)" fill="rgb(244,212,133)" d="M 1509.01 1180.34 C 1514.63 1190.24 1521.6 1201.83 1526.47 1211.94 C 1526.65 1215.47 1527.65 1220.09 1527.13 1223.25 L 1526.91 1222.81 C 1527.05 1227.93 1527 1229.16 1528.18 1234.04 L 1527.4 1235.91 C 1522.1 1229.24 1511.72 1211.3 1507.05 1203.57 C 1510.4 1202.11 1509.47 1203.28 1510.92 1200.72 C 1510.35 1197.99 1509.65 1195.79 1508.85 1193.15 L 1509.01 1180.34 z"/>
<path transform="translate(0,0)" fill="rgb(226,187,105)" d="M 1487.46 1171.82 C 1492.4 1170.22 1497.13 1168.38 1502.27 1167.91 L 1509.01 1180.34 L 1508.85 1193.15 C 1507.56 1187.83 1507.48 1184.89 1502.19 1182.66 C 1498.65 1183.11 1498.91 1183.1 1496.04 1185.27 C 1495.16 1184.45 1488.53 1173.55 1487.46 1171.82 z"/>
<path transform="translate(0,0)" fill="rgb(244,212,133)" d="M 1496.04 1185.27 C 1498.91 1183.1 1498.65 1183.11 1502.19 1182.66 C 1507.48 1184.89 1507.56 1187.83 1508.85 1193.15 C 1509.65 1195.79 1510.35 1197.99 1510.92 1200.72 C 1509.47 1203.28 1510.4 1202.11 1507.05 1203.57 L 1496.04 1185.27 z"/>
<path transform="translate(0,0)" fill="url(#Gradient3)" d="M 1185.02 1169.7 C 1190.64 1170.24 1220.53 1160.96 1228.74 1158.68 C 1226.33 1162.32 1198.65 1168.81 1192.71 1170.4 C 1191.46 1179.89 1189.22 1218.27 1191.09 1226.28 C 1198.48 1231.75 1221.5 1219.41 1231.05 1220.54 L 1231.79 1221.3 C 1224.96 1224.49 1200.64 1228.3 1191.74 1231.05 C 1122.19 1252.51 1053.62 1268.8 1032.12 1347.05 C 1008.3 1368.09 963.891 1382.04 932.789 1384.44 C 943.035 1369.39 955.44 1349.35 964.429 1333.8 C 984.649 1298.81 999.978 1267.31 1031.62 1240.19 C 1045.4 1228.38 1057.54 1222.79 1071.57 1212.87 C 1068.12 1207.78 1064.59 1202.74 1060.99 1197.76 C 1077.3 1197.23 1101.93 1182.54 1117.95 1177.46 C 1132.96 1172.71 1148.09 1169.33 1163.35 1165.67 C 1164.6 1165.37 1171.6 1160.33 1173.17 1159.22 C 1177.14 1162.69 1181.09 1166.18 1185.02 1169.7 z"/>
<path transform="translate(0,0)" fill="rgb(105,3,13)" d="M 1060.99 1197.76 C 1077.3 1197.23 1101.93 1182.54 1117.95 1177.46 C 1132.96 1172.71 1148.09 1169.33 1163.35 1165.67 C 1164.6 1165.37 1171.6 1160.33 1173.17 1159.22 C 1177.14 1162.69 1181.09 1166.18 1185.02 1169.7 C 1179.17 1172.87 1164.59 1176.58 1157.56 1178.7 C 1144.99 1182.44 1132.53 1186.52 1120.18 1190.92 C 1108.86 1195.03 1098.41 1200.17 1087.57 1205.25 C 1084.41 1206.74 1074.03 1212.19 1071.57 1212.87 C 1068.12 1207.78 1064.59 1202.74 1060.99 1197.76 z"/>
<path transform="translate(0,0)" fill="rgb(195,146,66)" d="M 1563.37 980.611 C 1575.69 983.748 1584.21 986.275 1595.66 991.71 C 1626.4 1006.3 1649.74 1042.36 1640.67 1076.86 C 1631.45 1111.89 1585.7 1135.65 1555.74 1149.29 C 1547.14 1152.33 1507.82 1164.34 1502.27 1167.91 C 1497.13 1168.38 1492.4 1170.22 1487.46 1171.82 L 1485.12 1172.37 C 1491.81 1162.47 1495.3 1155.24 1500.63 1144.59 C 1497.12 1128.35 1509.11 1104.84 1505.11 1096.22 L 1520.38 1089.75 C 1537.63 1080.56 1547.48 1071.31 1554.14 1052.22 C 1557.05 1043.89 1554.94 1026.19 1544.03 1025.19 C 1530.62 1023.95 1526.81 1033.86 1512.6 1024.51 C 1509.66 1019.84 1506.29 1013.36 1508.31 1007.58 C 1517.82 980.301 1561.61 987.439 1572.8 1010.41 C 1581.82 1028.92 1577.61 1046.01 1569.37 1063.79 C 1602.1 1033.15 1600.36 1006.15 1563.37 980.611 z"/>
<path transform="translate(0,0)" fill="url(#Gradient2)" d="M 1320.84 1220.39 C 1359.14 1216.25 1388.84 1234.6 1417.85 1212.12 C 1410.69 1232.69 1405.89 1237.91 1384.03 1242.24 C 1366.05 1268.14 1350.37 1268.84 1324.07 1255.21 C 1329.18 1253.4 1334.06 1252.22 1337.98 1248.66 L 1339.05 1246.15 C 1335.3 1238.23 1316.93 1238.88 1308.95 1238.82 C 1301.5 1239.57 1296.12 1240.76 1288.85 1242.73 C 1285.41 1239.06 1286.34 1237.07 1286.56 1232.15 C 1298.96 1225.72 1307.21 1222.53 1320.84 1220.39 z"/>
<path transform="translate(0,0)" fill="rgb(226,187,105)" d="M 1286.56 1232.15 C 1298.96 1225.72 1307.21 1222.53 1320.84 1220.39 C 1321.97 1226.98 1322.4 1231.25 1322.86 1237.94 C 1319.08 1238.07 1312.42 1238.11 1308.95 1238.82 C 1301.5 1239.57 1296.12 1240.76 1288.85 1242.73 C 1285.41 1239.06 1286.34 1237.07 1286.56 1232.15 z"/>
<path transform="translate(0,0)" fill="rgb(244,212,133)" d="M 1627.45 1188.59 C 1634.79 1185.99 1637.59 1184.91 1644.22 1180.29 C 1644.19 1191.24 1645.24 1208.04 1647.8 1218.76 C 1650.17 1229.3 1652.3 1238.76 1655.33 1249.15 C 1651.24 1244.83 1646.24 1239.87 1642.74 1235.17 C 1636.45 1226.37 1628.6 1215.49 1623.61 1206.03 C 1620.11 1200.84 1617.42 1195.14 1614.59 1189.55 C 1619.72 1189.65 1622.43 1189.27 1627.45 1188.59 z"/>
<path transform="translate(0,0)" fill="rgb(226,187,105)" d="M 1614.59 1189.55 C 1619.72 1189.65 1622.43 1189.27 1627.45 1188.59 C 1627.48 1193.99 1628.11 1202.38 1623.61 1206.03 C 1620.11 1200.84 1617.42 1195.14 1614.59 1189.55 z"/>
<path transform="translate(0,0)" fill="rgb(244,212,133)" d="M 1647.8 1218.76 C 1650.17 1229.3 1652.3 1238.76 1655.33 1249.15 C 1651.24 1244.83 1646.24 1239.87 1642.74 1235.17 C 1645.06 1231.66 1647.37 1223.01 1647.8 1218.76 z"/>
<path transform="translate(0,0)" fill="url(#Gradient1)" d="M 1483.96 947.286 C 1498.58 960.994 1512.13 971.869 1529.62 982.112 C 1515.51 985.777 1508.15 986.808 1499.47 999.299 C 1496.85 995.022 1481.03 967.751 1479.61 963.907 L 1481.08 963.498 C 1482.46 960.353 1483.43 951.142 1483.96 947.286 z"/>
<path transform="translate(0,0)" fill="rgb(244,212,133)" d="M 1607.56 1155.05 C 1640.78 1136.62 1654.79 1188.55 1610.89 1177.72 C 1598.78 1172.83 1597.5 1163.54 1607.56 1155.05 z"/>
<path transform="translate(0,0)" fill="rgb(226,187,105)" d="M 1610.89 1177.72 C 1598.78 1172.83 1597.5 1163.54 1607.56 1155.05 C 1609.36 1158.41 1612.14 1174.4 1610.89 1177.72 z"/>
<path transform="translate(0,0)" fill="rgb(195,146,66)" d="M 1479.61 963.907 C 1474.46 956.328 1466.91 943.343 1464.88 934.448 L 1466.41 932.706 C 1471.28 933.83 1480 943.362 1483.96 947.286 C 1483.43 951.142 1482.46 960.353 1481.08 963.498 L 1479.61 963.907 z"/>
<path transform="translate(0,0)" fill="rgb(244,212,133)" d="M 1263.63 1252.6 C 1271.73 1243.48 1276.52 1239 1286.56 1232.15 C 1286.34 1237.07 1285.41 1239.06 1288.85 1242.73 C 1278.19 1245.75 1273.57 1247.7 1263.63 1252.6 z"/>
</svg>