<svg xmlns="http://www.w3.org/2000/svg" viewBox="0 0 512 512" role="img" aria-label="Burma AI Studio app icon">
  <rect width="512" height="512" rx="108" fill="#fff9f0"/>
  <circle cx="256" cy="256" r="210" fill="#100708"/>
  <g transform="translate(20 86) scale(0.23)">
    <svg viewBox="0 0 2048 1360" width="2048" height="1360" preserveAspectRatio="xMidYMid meet">
      <path transform="translate(0,0)" fill="rgb(114,7,16)" d="M 696.912 337.499 C 698.926 338.292 700.92 339.135 702.893 340.026 C 750.075 361.749 715.393 391.857 724.763 411.644 C 733.376 429.834 754.134 437.056 763.175 461.676 C 770.972 482.907 767.171 503.248 758.066 523.207 C 785.965 503.932 764.411 493.043 794.831 473.079 C 774.65 508.575 837.379 531.004 788.055 574.786 C 800.56 573.926 804.016 574.072 812.897 565.137 C 810.633 590.197 801.524 613.794 778.32 625.972 C 752.691 639.424 730.592 632.079 717.253 607.464 C 721.297 609.584 724.267 611.909 728.824 612.003 L 730.058 611.714 C 759.765 604.622 738.679 568.075 712.049 578.65 C 690.111 587.361 684.561 614.291 692.088 634.772 C 705.208 667.805 731.711 676.069 762.044 685.176 L 762.921 685.387 C 772.046 687.494 809.045 686.895 820.812 686.72 C 890.517 685.685 982.824 687.464 1026.2 752.337 C 1043.42 778.09 1048.53 819.044 1041.25 848.972 C 1033.42 881.149 1016.79 902.927 989.188 920.214 C 977.364 927.607 964.688 933.54 951.437 937.884 C 1002.2 947.459 1039.33 961.812 1074.18 1000.83 C 1048.11 1010.66 1024.71 1021.12 1003.17 1039.39 C 955.836 951.407 878.95 958.444 791.294 958.625 L 791.102 1217.01 C 762.137 1217.05 730.35 1219.23 703.085 1209.86 L 703.103 919.061 L 703.178 834.658 C 703.192 804.327 706.814 764.653 683.921 741.373 C 679.074 736.445 671.6 731.809 664.466 731.943 C 659.883 732.048 655.567 734.119 652.618 737.629 C 651.985 738.378 651.437 739.155 650.882 739.96 C 653.687 741.55 659.313 737.367 666.974 743.004 C 670.705 745.758 673.065 749.989 673.449 754.61 C 675.545 778.615 639.29 782.46 625.237 766.446 C 609.209 748.181 614.214 731.324 608.336 710.436 C 614.25 715.1 623.716 720.001 631.254 719.183 L 632.699 717.581 C 630.929 714.721 623.925 709.894 621.078 707.228 C 579.439 668.227 588.394 606.901 606.344 559.164 C 602.64 598.448 607.055 629.957 633.039 661.953 C 640.734 671.429 650.18 680.421 660.88 686.411 C 668.866 685.923 678.58 689.686 686.824 691.303 C 677.573 684.431 671.241 681.349 661.649 672.981 C 618.835 636.728 608.165 578.753 632.666 528.812 C 640.966 511.895 667.048 481.816 646.83 464.746 L 645.98 464.036 C 647.838 462.677 649.714 462.783 652.051 463.02 C 680.413 465.897 690.873 482.477 689.177 509.271 C 718.835 464.592 672.979 458.28 676.097 419.181 C 678.664 386.979 727.765 376.361 696.912 337.499 z"/>
      <path transform="translate(0,0)" fill="rgb(203,155,86)" d="M 672.632 589.24 C 683.666 558.864 706.679 547.994 723.46 522.594 C 726.118 518.572 730.241 508.029 731.584 506.848 L 732.595 511.607 C 732.155 520.667 732.102 527.554 729.893 536.434 C 728.549 541.837 721.832 552.317 721.811 555.995 C 724.316 556.14 723.123 556.414 725.395 554.769 L 725.452 553.439 L 726.269 552.893 C 732.314 554.78 759.852 558.925 765.789 555.548 C 772.992 551.45 775.96 544.097 778.768 536.694 L 779.642 536.962 C 782.462 551.854 777.825 560.85 767.5 571.182 C 785.054 614.077 736.954 625.799 728.595 612.889 L 728.824 612.003 L 730.058 611.714 C 759.765 604.622 738.679 568.075 712.049 578.65 C 690.111 587.361 684.561 614.291 692.088 634.772 C 705.208 667.805 731.711 676.069 762.044 685.176 L 761.302 686.607 C 736.064 692.32 692.91 673.036 677.804 652.719 C 677.686 651.563 674.9 641.329 674.471 639.981 C 668.634 621.648 667.588 608.098 672.632 589.24 z"/>
      <path transform="translate(0,0)" fill="rgb(114,7,16)" d="M 1023.92 368.565 C 1025.88 370.684 1026.75 377.189 1027.37 380.37 C 1037.36 432.261 1072.96 477.503 1114.63 508.617 C 1151.49 536.143 1179.55 562.623 1181.54 612.003 C 1234.6 612.929 1207.86 647.475 1250.5 659.782 C 1207.52 659.095 1163.13 659.678 1120.03 659.576 C 1123.61 651.544 1126.01 643.038 1127.16 634.321 C 1134.13 578.171 1081.61 556.416 1048.05 523.671 C 1035.21 511.133 1033.04 502.996 1024 491.548 C 1017.11 503.81 1009.67 514.71 999.697 524.545 C 970.321 553.507 924.177 573.12 920.998 619.871 C 919.973 634.949 922.892 646.141 929.222 659.681 L 799.039 659.696 C 838.924 647.969 815.849 611.309 867.071 612.11 C 868.128 539.194 931.958 519.027 973.147 472.786 C 1002.32 440.029 1015.29 410.776 1023.92 368.565 z"/>
      <path transform="translate(0,0)" fill="rgb(114,7,16)" d="M 1144.3 686.949 L 1191.67 686.926 L 1255.05 846.694 C 1265.19 871.995 1277.32 899.847 1286.57 925.235 C 1276.02 932.895 1264.79 939.57 1253.02 945.177 L 1243.4 948.954 C 1235.65 953.562 1215.02 959.979 1205.66 962.985 C 1198.83 948.006 1191.61 928.572 1185.39 913.08 L 1138.27 794.879 C 1122.75 831.903 1107.45 869.014 1092.35 906.212 C 1084.24 925.962 1073.66 949.677 1066.86 969.556 C 1057.34 961.821 1047.24 954.828 1036.66 948.636 L 1144.3 686.949 z"/>
      <path transform="translate(0,0)" fill="rgb(114,7,16)" d="M 635.682 1040.86 L 636.337 1041.51 L 636.214 1044.9 C 634.944 1080.74 680.856 1068.68 661.719 1120.07 C 671.242 1112.68 673.539 1110.35 676.607 1098.79 C 686.341 1115.62 700.886 1148.77 675.627 1162.51 C 674.328 1163.22 670.352 1164.38 669.053 1163.78 C 679.517 1146.71 653.48 1144.09 651.488 1159.29 C 646.308 1198.83 680.349 1223.62 715.645 1229.9 C 742.504 1234.69 769.091 1232.28 796.207 1232.77 C 888.597 1232.93 997.939 1243.93 1020.15 1127.95 C 1039.85 1104.66 1065.17 1093.64 1093.06 1082.99 L 1109.83 1077.44 C 1117.58 1124.67 1103.92 1176.74 1068.09 1209.58 C 1004.78 1267.59 912.984 1263.64 832.746 1264.41 C 798.48 1264.75 764.677 1264.48 730.469 1264.24 C 697.543 1263.82 664.446 1253.64 641.403 1228.97 C 615.14 1201.08 606.857 1160.77 619.999 1124.79 C 622.086 1119.2 625.756 1111.25 628.863 1106.22 C 644.44 1080.98 610.699 1063.95 635.682 1040.86 z"/>
      <path transform="translate(0,0)" fill="rgb(203,155,86)" d="M 1349.61 994.582 C 1355.68 993.129 1361.8 996.782 1363.41 1002.81 C 1365.01 1008.84 1361.51 1015.05 1355.52 1016.81 C 1351.51 1017.98 1347.18 1016.89 1344.21 1013.95 C 1341.23 1011.02 1340.09 1006.7 1341.21 1002.68 C 1342.33 998.653 1345.55 995.554 1349.61 994.582 z"/>
    </svg>
  </g>
</svg>
