<svg xmlns="http://www.w3.org/2000/svg" viewBox="560 320 570 930" width="512" height="512" preserveAspectRatio="xMidYMid meet">
  <rect x="560" y="320" width="570" height="930" rx="120" fill="#fff9f0"/>
  <path fill="rgb(114,7,16)" d="M 696.912 337.499 C 698.926 338.292 700.92 339.135 702.893 340.026 C 750.075 361.749 715.393 391.857 724.763 411.644 C 733.376 429.834 754.134 437.056 763.175 461.676 C 770.972 482.907 767.171 503.248 758.066 523.207 C 785.965 503.932 764.411 493.043 794.831 473.079 C 774.65 508.575 837.379 531.004 788.055 574.786 C 800.56 573.926 804.016 574.072 812.897 565.137 C 810.633 590.197 801.524 613.794 778.32 625.972 C 752.691 639.424 730.592 632.079 717.253 607.464 C 721.297 609.584 724.267 611.909 728.824 612.003 L 730.058 611.714 C 759.765 604.622 738.679 568.075 712.049 578.65 C 690.111 587.361 684.561 614.291 692.088 634.772 C 705.208 667.805 731.711 676.069 762.044 685.176 L 762.921 685.387 C 772.046 687.494 809.045 686.895 820.812 686.72 C 890.517 685.685 982.824 687.464 1026.2 752.337 C 1043.42 778.09 1048.53 819.044 1041.25 848.972 C 1033.42 881.149 1016.79 902.927 989.188 920.214 C 977.364 927.607 964.688 933.54 951.437 937.884 C 1002.2 947.459 1039.33 961.812 1074.18 1000.83 C 1048.11 1010.66 1024.71 1021.12 1003.17 1039.39 C 955.836 951.407 878.95 958.444 791.294 958.625 L 791.102 1217.01 C 762.137 1217.05 730.35 1219.23 703.085 1209.86 L 703.103 919.061 L 703.178 834.658 C 703.192 804.327 706.814 764.653 683.921 741.373 C 679.074 736.445 671.6 731.809 664.466 731.943 C 659.883 732.048 655.567 734.119 652.618 737.629 C 651.985 738.378 651.437 739.155 650.882 739.96 C 653.687 741.55 659.313 737.367 666.974 743.004 C 670.705 745.758 673.065 749.989 673.449 754.61 C 675.545 778.615 639.29 782.46 625.237 766.446 C 609.209 748.181 614.214 731.324 608.336 710.436 C 614.25 715.1 623.716 720.001 631.254 719.183 L 632.699 717.581 C 630.929 714.721 623.925 709.894 621.078 707.228 C 579.439 668.227 588.394 606.901 606.344 559.164 C 602.64 598.448 607.055 629.957 633.039 661.953 C 640.734 671.429 650.18 680.421 660.88 686.411 C 668.866 685.923 678.58 689.686 686.824 691.303 C 677.573 684.431 671.241 681.349 661.649 672.981 C 618.835 636.728 608.165 578.753 632.666 528.812 C 640.966 511.895 667.048 481.816 646.83 464.746 L 645.98 464.036 C 647.838 462.677 649.714 462.783 652.051 463.02 C 680.413 465.897 690.873 482.477 689.177 509.271 C 718.835 464.592 672.979 458.28 676.097 419.181 C 678.664 386.979 727.765 376.361 696.912 337.499 z M 791.152 720.491 L 791.124 852.501 C 791.167 876.404 790.597 903.268 791.381 926.923 C 834.46 926.867 878.865 930.95 915.967 906.363 C 940.116 886.982 950.317 868.82 953.889 838.249 C 961.551 772.672 924.782 724.353 858.311 718.648 C 844.801 717.489 826.108 716.539 812.664 718.405 L 791.152 720.491 z"/>
  <path fill="rgb(203,155,86)" d="M 672.632 589.24 C 683.666 558.864 706.679 547.994 723.46 522.594 C 726.118 518.572 730.241 508.029 731.584 506.848 L 732.595 511.607 C 732.155 520.667 732.102 527.554 729.893 536.434 C 728.549 541.837 721.832 552.317 721.811 555.995 C 724.316 556.14 723.123 556.414 725.395 554.769 L 725.452 553.439 L 726.269 552.893 C 732.314 554.78 759.852 558.925 765.789 555.548 C 772.992 551.45 775.96 544.097 778.768 536.694 L 779.642 536.962 C 782.462 551.854 777.825 560.85 767.5 571.182 C 785.054 614.077 736.954 625.799 728.595 612.889 L 728.824 612.003 L 730.058 611.714 C 759.765 604.622 738.679 568.075 712.049 578.65 C 690.111 587.361 684.561 614.291 692.088 634.772 C 705.208 667.805 731.711 676.069 762.044 685.176 L 761.302 686.607 C 736.064 692.32 692.91 673.036 677.804 652.719 C 677.686 651.563 674.9 641.329 674.471 639.981 C 668.634 621.648 667.588 608.098 672.632 589.24 z"/>
  <path fill="rgb(203,155,86)" d="M 660.88 686.411 C 668.866 685.923 678.58 689.686 686.824 691.303 C 700.345 695.24 720.801 709.718 729.9 720.095 C 755.232 748.986 751.877 792.687 751.895 828.648 L 751.664 915.968 C 751.614 973.091 751.014 1030.21 749.864 1087.33 C 749.33 1114.02 749.295 1144.37 747.489 1170.76 C 744.97 1145.87 745.334 1108.95 744.751 1082.66 C 743.193 1023.52 742.544 964.349 742.805 905.183 C 742.737 868.673 742.997 831.721 742.049 795.588 C 740.798 760.76 732.356 730.828 700.886 711.528 C 690.056 704.886 669.143 694.402 660.88 686.411 z"/>
  <path fill="rgb(242,201,131)" d="M 720.329 458.175 C 725.54 464.005 727.988 466.945 732.49 473.518 C 743.809 492.917 747.064 519.34 734.563 539.054 C 731.832 545.009 730.068 547.46 726.269 552.893 L 725.452 553.439 L 725.395 554.769 C 723.123 556.414 724.316 556.14 721.811 555.995 C 721.832 552.317 728.549 541.837 729.893 536.434 C 732.102 527.554 732.155 520.667 732.595 511.607 L 731.584 506.848 C 730.241 508.029 726.118 518.572 723.46 522.594 C 706.679 547.994 683.666 558.864 672.632 589.24 C 668.99 588.973 668.476 588.944 665.29 587.2 C 678.6 540.659 724.822 534.221 726.198 479.804 C 724.843 470.716 723.525 466.571 720.329 458.175 z"/>
  <path fill="rgb(114,7,16)" d="M 1023.92 368.565 C 1025.88 370.684 1026.75 377.189 1027.37 380.37 C 1037.36 432.261 1072.96 477.503 1114.63 508.617 C 1151.49 536.143 1179.55 562.623 1181.54 612.003 C 1234.6 612.929 1207.86 647.475 1250.5 659.782 C 1207.52 659.095 1163.13 659.678 1120.03 659.576 C 1123.61 651.544 1126.01 643.038 1127.16 634.321 C 1134.13 578.171 1081.61 556.416 1048.05 523.671 C 1035.21 511.133 1033.04 502.996 1024 491.548 C 1017.11 503.81 1009.67 514.71 999.697 524.545 C 970.321 553.507 924.177 573.12 920.998 619.871 C 919.973 634.949 922.892 646.141 929.222 659.681 L 799.039 659.696 C 838.924 647.969 815.849 611.309 867.071 612.11 C 868.128 539.194 931.958 519.027 973.147 472.786 C 1002.32 440.029 1015.29 410.776 1023.92 368.565 z"/>
</svg>
